<svg width="248" height="229" viewBox="0 0 248 229" fill="none" xmlns="http://www.w3.org/2000/svg">
<path d="M103.252 10.43C102.575 10.6721 100.366 11.312 98.3529 11.8827C89.0712 14.4766 86.1317 16.4999 84.2967 21.5322L83.8335 22.8119L79.7004 25.4751C77.4201 26.9277 75.5495 28.1036 75.5495 28.0517C75.5495 28.0171 75.8702 27.481 76.2799 26.8931C77.2776 25.3886 78.2752 23.2961 79.0056 21.1864C79.647 19.3014 81.4998 12.4015 81.3751 12.2977C81.3394 12.2631 80.4487 12.7473 79.3976 13.3526C71.4342 18.0044 66.3925 22.8465 64.3259 27.8615C63.2036 30.5592 62.9898 32.8073 63.6133 35.1246L63.9874 36.4735L63.2214 37.1133C61.4577 38.5659 58.3044 41.4712 56.7188 43.0967C55.3114 44.5493 55.0977 44.7223 55.3827 44.1343C56.3982 42.111 57.378 38.5659 57.7343 35.6607C58.055 32.8592 57.8768 27.948 57.2889 23.6939L57.182 22.9503L55.1689 25.4232C51.98 29.3487 50.5726 31.1991 49.1474 33.3261C46.5464 37.1998 45.7803 39.1539 45.2459 43.2524C44.7649 47.0396 45.5665 52.4177 46.7602 53.3688C47.0274 53.5764 47.1343 53.5591 47.5797 53.2478C47.8647 53.0403 48.1497 52.8673 48.2032 52.8673C48.2566 52.8673 47.7044 53.6628 46.9739 54.6312C45.6022 56.4989 42.5736 61.1335 41.4512 63.1049C41.0771 63.762 40.7564 64.2808 40.7386 64.2808C40.703 64.2808 40.7564 63.8658 40.8633 63.3643C40.9524 62.8801 41.0415 61.0643 41.0415 59.3523C41.0415 54.8215 40.7386 53.3343 37.9595 44.7742C37.229 42.5606 36.5877 40.814 36.5342 40.8832C36.4095 41.0216 34.7705 45.9155 33.4344 50.1004C32.5614 52.8501 31.4391 57.1214 31.0828 59.0929C30.8868 60.1477 30.7621 61.6695 30.7621 63.3297C30.7621 66.2176 31.065 67.8259 32.1161 70.2296C32.7218 71.5958 34.9309 75.5732 35.1268 75.6597C35.1981 75.6942 35.0556 76.2303 34.8062 76.8702C34.0401 78.7897 32.3299 83.822 31.9735 85.1536C31.7954 85.8453 31.5994 86.416 31.5282 86.416C31.4569 86.416 31.35 86.0528 31.2788 85.5859C31.1006 84.3581 29.4972 79.8619 28.4283 77.5619C27.9117 76.4379 27.11 75.0371 26.6646 74.4146C26.2192 73.792 24.9366 71.8206 23.8142 70.0394C21.231 65.8718 20.8569 65.7334 20.8569 68.8635C20.8569 69.6244 20.7678 71.4574 20.6787 72.9274C19.8414 85.2746 20.3224 90.134 22.7809 94.8031C23.7964 96.7054 25.5066 98.4693 27.4307 99.5587C28.7312 100.302 28.7312 100.32 28.6243 100.942C28.3571 102.55 27.9651 107.375 27.8582 110.315L27.7513 113.566L26.8784 111.975C25.7204 109.9 23.6004 106.58 22.2286 104.747C20.2333 102.049 19.0397 100.769 17.0444 99.2129C15.9577 98.3655 14.5147 97.2415 13.8555 96.7227C12.0918 95.3219 11.7533 95.4257 12.1987 97.1896C12.3412 97.7776 12.8757 100.441 13.3745 103.104C14.7463 110.54 15.6548 113.756 17.4007 117.353C19.5742 121.832 23.1016 125.343 27.6445 127.591L28.6599 128.075L28.8559 129.51C29.2835 132.398 30.2098 137.016 30.8334 139.402C31.0115 140.077 31.1362 140.647 31.1184 140.664C31.0828 140.699 30.7977 140.353 30.4771 139.921C29.4438 138.52 27.4129 136.67 25.667 135.528C24.7406 134.923 22.7809 133.609 21.3023 132.589C17.0801 129.683 10.4528 125.498 10.0787 125.498C9.81146 125.498 10.1678 126.328 12.0384 130.15C14.8888 135.995 18.0064 141.927 19.3426 144.089C22.5671 149.328 27.2347 152.96 33.2919 154.983C34.3073 155.312 35.4297 155.588 35.7682 155.588C36.3561 155.588 36.4095 155.64 36.8549 156.678C37.5319 158.252 41.3443 165.515 42.2173 166.881C43.0011 168.126 42.9655 168.143 41.7541 167.244C39.8122 165.809 35.9285 163.716 32.704 162.35C30.2989 161.33 28.5708 160.776 25.5957 160.085C24.3308 159.791 22.1752 159.151 20.8212 158.701C17.1691 157.439 17.0266 157.681 19.5742 160.707C20.5184 161.849 22.1218 163.82 23.1016 165.1C25.4176 168.091 27.4485 170.27 29.9782 172.484C35.0378 176.911 37.2468 178.225 41.665 179.453C45.2993 180.473 47.1877 180.646 50.145 180.3L51.7306 180.11L52.1938 180.698C53.9753 182.912 58.2331 187.2 61.9209 190.503L63.3461 191.783L60.6382 190.451C57.5918 188.964 57.1286 188.843 51.2318 188.03C42.5914 186.837 33.47 186.111 32.3833 186.509C32.1161 186.63 32.1517 186.716 32.7396 187.252C34.0045 188.428 41.5937 193.789 44.4442 195.536C46.7067 196.919 48.8623 197.939 51.6771 198.96C56.701 200.775 58.732 201.139 63.0967 201.017C66.6953 200.914 67.8711 200.706 70.7394 199.599L72.806 198.804L75.2645 200.291C77.9367 201.917 82.2658 204.269 84.1008 205.099C87.0937 206.447 87.4322 206.62 86.7731 206.517C86.4346 206.465 84.2789 206.378 81.9986 206.309C76.3334 206.171 74.9972 206.326 65.9293 208.056C63.2392 208.575 59.5336 209.249 57.6987 209.578C53.7615 210.252 53.5121 210.442 55.7568 211.065C56.5229 211.272 59.3555 212.12 62.0278 212.932C71.1848 215.699 72.9663 216.011 79.2907 216.028C83.3525 216.028 84.0473 215.993 85.7576 215.63C89.8551 214.8 92.6343 213.52 95.1284 211.341C96.2329 210.373 96.7139 210.044 96.999 210.114C97.1949 210.148 98.5845 210.511 100.063 210.909C101.542 211.307 104.054 211.895 105.639 212.206C107.207 212.517 108.543 212.811 108.597 212.863C108.632 212.898 108.258 213.036 107.742 213.157C105.372 213.745 98.9408 216.668 89.4453 221.458C84.0651 224.173 82.4262 225.124 82.729 225.314C83.2813 225.66 92.4561 225.314 97.7294 224.744C104.232 224.052 112.587 221.233 116.008 218.57C117.273 217.584 118.591 216.305 119.927 214.783L120.568 214.039H124.221H127.891L130.438 216.408C134.838 220.489 135.533 220.853 143.425 223.17C147.95 224.501 149.304 224.709 158.052 225.297C165.908 225.833 166.407 225.833 166.407 225.262C166.407 224.83 161.686 222.357 158.746 221.25C157.82 220.905 156.288 220.144 155.362 219.556C152.939 218.034 150.926 216.979 148.503 215.941C146.294 215.008 140.361 213.002 139.827 213.002C139.649 213.002 139.506 212.95 139.506 212.863C139.506 212.794 140.326 212.587 141.341 212.414C143.497 212.033 147.933 210.961 150.516 210.2C151.513 209.906 152.351 209.699 152.386 209.733C152.404 209.768 152.547 210.027 152.689 210.321C153.58 211.999 159.548 214.99 163.557 215.751C166.674 216.356 173.319 216.305 176.74 215.682C179.822 215.094 190.742 211.86 192.417 211.013C193.148 210.65 193.112 210.148 192.381 209.906C191.455 209.629 185.22 208.402 180.837 207.658C173.711 206.43 171.627 206.188 168.01 206.188C164.821 206.188 164.038 206.275 159.851 207.035C159.584 207.087 159.78 206.949 160.261 206.741C164.501 204.943 171.057 201.432 175.261 198.683C177.345 197.317 177.417 197.299 177.203 197.836C176.775 198.839 177.274 199.444 179.091 200.101C181.158 200.862 183.135 201.139 186.36 201.139C189.585 201.139 190.867 200.948 194.288 199.945C197.405 199.029 199.81 197.974 202.768 196.227C207.703 193.322 214.508 188.791 215.559 187.684C216.093 187.131 215.951 186.768 215.131 186.612C214.08 186.422 202.501 187.269 198.207 187.857C192.952 188.566 188.159 190.036 184.578 192.06L183.599 192.613L184.578 191.783C188.444 188.515 192.275 184.727 195.695 180.802C196.657 179.695 196.728 179.643 197.103 179.868C198.759 180.871 203.338 180.542 208.077 179.072C210.428 178.346 211.907 177.585 214.419 175.839C220.298 171.757 222.543 169.561 226.052 164.477C227.531 162.333 228.724 160.949 230.061 159.894C231.308 158.891 231.628 158.425 231.236 158.165C230.898 157.94 230.15 158.079 227.424 158.874C226.159 159.237 223.95 159.825 222.525 160.188C219.87 160.846 217.911 161.503 215.577 162.558C212.37 163.993 208.094 166.552 205.44 168.627C203.997 169.751 203.961 169.769 204.371 169.129C206.562 165.688 210.001 159.341 211.212 156.488C211.479 155.865 211.729 155.537 211.871 155.588C213.207 156.038 218.196 154.188 221.848 151.87C224.021 150.47 227.121 147.582 228.279 145.818C230.47 142.48 236.652 130.531 237.775 127.453C238.291 126.035 238.024 126.017 235.868 127.262C233.356 128.732 225.536 133.782 223.237 135.442C221.117 136.981 218.516 139.419 217.305 141.045C216.842 141.65 216.468 142.1 216.468 142.065C216.468 142.013 216.699 141.097 217.002 140.007C217.643 137.569 218.481 133.592 218.962 130.513C219.176 129.234 219.354 128.179 219.371 128.179C219.389 128.162 219.728 128.058 220.138 127.954C221.171 127.66 224.591 125.637 225.892 124.547C228.137 122.628 229.74 120.553 231.272 117.544C232.982 114.206 234.069 110.54 235.174 104.366C235.565 102.153 236.153 99.3512 236.456 98.158C237.222 95.1144 237.026 94.7858 235.227 96.2385C232.929 98.1234 226.48 104.885 224.306 107.704C222.988 109.416 221.741 111.543 220.921 113.445L220.262 114.95L220.155 111.197C220.048 107.911 219.728 103.675 219.389 101.081C219.282 100.32 219.3 100.285 219.639 100.372C220.334 100.544 221.67 99.7144 223.433 98.0197C224.93 96.567 225.251 96.152 225.945 94.7167C227.353 91.846 228.083 89.0445 228.404 85.2573C228.707 81.6085 228.618 78.6168 227.958 70.5063C227.531 65.3011 227.816 65.4567 225.482 69.1402C221.741 75.0717 218.908 80.2769 218.053 82.8709C217.732 83.8739 217.643 84.6002 217.572 87.1596C217.537 88.8543 217.465 90.2205 217.43 90.1859C217.394 90.1513 217.091 89.0272 216.735 87.713C215.933 84.6867 214.259 79.5852 213.101 76.68C212.513 75.1927 212.334 74.5529 212.53 74.7258C213.332 75.4349 214.241 74.7258 215.488 72.374C216.414 70.6274 217.554 67.4281 218 65.3184C218.516 62.7936 218.142 60.0786 216.361 53.6455C215.452 50.3598 213.029 43.114 212.726 42.7509C212.139 42.0591 211.283 43.5982 209.342 48.8035C208.469 51.1726 208.255 52.4523 208.059 57.035C207.916 60.1823 207.899 62.1192 208.041 63.6928C208.13 64.9206 208.201 65.9409 208.184 65.9755C208.148 66.0101 207.685 65.2146 207.15 64.2289C205.102 60.5282 202.055 55.9109 199.383 52.4523C197.975 50.6192 197.922 50.2907 199.276 51.6568C199.668 52.0546 200.381 52.6598 200.862 53.0057L201.734 53.6282L202.144 53.1613C202.999 52.1929 203.516 49.3741 203.516 45.6907C203.516 39.69 201.948 35.9028 196.8 29.4352C195.784 28.1555 191.705 23.2961 191.134 22.6909C190.974 22.5179 191.063 26.3743 191.366 33.8622C191.526 38.1336 191.776 40.105 192.328 41.7133C192.667 42.6817 193.931 45.293 194.644 46.4689C194.911 46.9012 195 47.0914 194.84 46.9185C192.898 44.6012 187.732 39.5689 184.881 37.1652C184.276 36.6637 184.222 36.5772 184.472 36.3351C184.97 35.8682 185.184 34.6577 185.184 32.4615C185.184 29.954 184.953 28.8645 184.097 27.1871C182.548 24.1608 178.913 20.0969 175.172 17.2089C172.945 15.4969 168.58 12.7473 168.064 12.7473C167.529 12.7473 168.046 15.5142 169.525 20.339C170.665 24.0743 171.413 25.5096 173.693 28.3803C174.495 29.3833 174.566 29.5389 174.139 29.2622C173.854 29.0893 172.5 28.3457 171.128 27.6021C168.01 25.942 165.481 24.5239 165.267 24.3337C165.178 24.2472 165.035 23.6939 164.946 23.0886C164.608 20.7021 162.594 17.7969 159.94 15.8428C157.446 14.0097 155.094 13.1105 146.472 10.6548C143.728 9.87666 143.247 9.82478 143.247 10.3263C143.247 11.0872 148.039 17.2781 151.032 20.3563C153.491 22.8984 156.876 24.7314 160.421 25.4751C161.561 25.6999 161.953 25.9247 165.374 28.2592C167.405 29.6427 169.061 30.8186 169.026 30.8532C168.99 30.8705 168.046 30.8359 166.941 30.7495C164.501 30.5592 162.345 30.7321 159.495 31.3547C156.911 31.9081 153.295 32.963 151.175 33.7585C146.632 35.4705 147.149 35.7472 156.876 36.7847C159.619 37.0787 161.989 37.3554 162.131 37.39C162.274 37.4419 163.877 37.5456 165.677 37.6494C169.311 37.8569 174.905 37.6321 176.918 37.2344L178.076 36.9923L180.125 38.6178C181.247 39.4998 182.69 40.693 183.331 41.2464L184.489 42.284L182.886 41.8689C179.661 41.0388 177.737 40.8486 172.464 40.8659C167.137 40.8832 166.015 41.0216 165.908 41.7306C165.837 42.2494 166.282 42.5434 168.723 43.5809C169.952 44.0997 172.749 45.3621 174.958 46.3824C178.913 48.2155 182.833 49.7892 184.792 50.3425C186.289 50.7576 189.602 51.2764 191.669 51.4147L193.522 51.5358L195.392 53.9049C196.408 55.2192 197.744 56.9831 198.35 57.8132C199.294 59.1447 199.383 59.3004 198.92 59.0064C194.982 56.4816 186.307 53.4207 182.156 53.0921C180.802 52.9884 180.499 53.1267 180.819 53.7147C181.176 54.3372 193.807 64.7131 196.354 66.4597C200.006 68.9845 204.246 71.3364 205.85 71.7341L206.651 71.9243L207.489 73.7747C208.344 75.6424 210.589 81.2972 210.589 81.5739C210.589 81.6604 209.68 80.8303 208.593 79.7235C206.081 77.2333 204.068 75.7461 200.683 73.8612C195.659 71.0597 192.417 69.6935 192.417 70.368C192.417 70.7311 193.29 71.9589 194.573 73.3597C196.711 75.7461 199.312 79.4814 201.574 83.4589C202.144 84.4446 202.892 85.6551 203.267 86.1393C205.404 88.9408 209.431 92.728 212.406 94.7513C213.279 95.3565 214.116 95.9099 214.259 96.0137C214.65 96.2731 215.417 101.496 215.915 107.168C215.987 108.067 216.04 108.828 216.022 108.862C216.004 108.88 215.719 108.188 215.399 107.306C214.633 105.127 213.475 103 212.281 101.547C211.034 100.043 201.164 90.134 200.897 90.134C200.523 90.134 200.755 91.2062 202.02 95.4084C204.656 104.107 206.384 108.69 208.629 112.961C210.41 116.385 212.584 119.498 214.864 121.919L215.808 122.922L215.684 124.34C215.399 127.47 214.205 135.01 213.973 135.01C213.902 135.01 213.795 134.525 213.742 133.92C213.403 130.41 211.372 125.965 206.527 118.149C204.514 114.88 203.498 113.532 203.142 113.601C202.696 113.687 202.679 115.209 203.017 120.743C203.623 130.894 204.157 136.514 204.745 138.728C205.547 141.875 207.845 146.821 209.359 148.688L209.858 149.311L208.825 151.801C207.15 155.813 203.997 162.194 203.997 161.555C203.997 161.451 204.086 160.258 204.175 158.891C204.531 153.755 203.498 146.821 201.485 140.976C200.701 138.676 200.078 137.604 199.543 137.604C199.062 137.604 198.884 138.019 198.742 139.592C198.581 141.373 197.975 144.434 196.782 149.536C194.822 157.871 194.466 160.258 194.608 164.373C194.715 167.469 194.911 168.524 196.016 171.619L196.586 173.21L195.054 175.164C193.468 177.188 190.101 181.061 189.727 181.286C189.567 181.372 189.549 181.286 189.638 180.992C189.87 180.162 190.457 176.565 190.636 174.801C190.903 172.19 190.849 166.379 190.547 162.592C190.386 160.794 190.244 159.22 190.208 159.134C190.172 159.03 189.531 160.171 188.765 161.641C186.681 165.688 183.955 170.495 182.583 172.588C179.109 177.897 178.307 180.802 177.88 189.569L177.773 192.008L176.668 192.786C174.246 194.55 168.723 198.129 168.456 198.129C168.402 198.129 168.687 197.628 169.079 197.023C171.039 194.031 172.999 189.137 173.961 184.848C174.353 183.136 175.136 178.191 175.029 178.087C174.905 177.948 165.356 187.252 162.612 190.175C157.375 195.778 155.076 199.617 154.56 203.681L154.435 204.649L152.012 205.444C150.053 206.084 145.189 207.468 144.904 207.468C144.868 207.468 145.634 206.69 146.614 205.738C150.32 202.142 153.847 196.902 154.702 193.72C155.29 191.472 155.54 191.558 152.565 193.011C150.213 194.135 148.004 195.051 143.336 196.781C142.552 197.075 140.949 197.784 139.773 198.372C137.849 199.323 137.457 199.599 135.836 201.156C132.879 204.026 130.402 207.589 130.349 209.024L130.331 209.664L129.013 209.785C127.018 209.941 119.446 209.906 118.983 209.733C118.698 209.629 118.448 209.249 118.146 208.488C117.576 207.001 116.471 204.857 115.776 203.871C114.85 202.539 112.801 200.672 111.126 199.617C109.309 198.458 107.171 197.455 104.054 196.314C99.8672 194.792 95.9301 193.045 93.9169 191.869L93.329 191.506L93.4538 192.094C94.3623 196.054 97.6759 201.087 102.539 205.877C103.626 206.949 104.392 207.779 104.25 207.744C104.089 207.693 102.842 207.381 101.471 207.035C100.099 206.69 97.8897 206.067 96.5536 205.635L94.1307 204.874L94.006 203.784C93.5072 199.478 92.0998 196.884 87.3788 191.731C85.6863 189.898 73.7502 177.862 73.6789 177.931C73.5186 178.069 74.5518 183.534 75.1932 185.972C76.6362 191.541 78.2752 195.397 80.4843 198.441C80.7337 198.787 80.6268 198.752 79.6292 198.199C78.1149 197.351 73.8392 194.619 72.1112 193.374C71.1135 192.665 70.7394 192.302 70.8285 192.111C70.8819 191.973 71.0244 191.247 71.1135 190.538C71.6123 187.166 70.5434 181.874 68.3343 176.755C67.4436 174.697 66.8201 173.573 65.0207 170.685C63.8449 168.818 60.9767 163.647 59.5871 160.897C59.213 160.171 58.821 159.566 58.6963 159.566C58.3757 159.566 58.2688 161.9 58.2688 168.991C58.2688 177.654 58.3935 178.969 59.6227 182.566C59.8009 183.067 55.8993 178.83 53.4052 175.77L51.8731 173.919L52.3185 172.933C53.2627 170.858 54.1713 165.912 54.1713 162.8C54.1713 159.808 53.5299 156.021 51.6059 147.685C50.4301 142.584 49.7709 139.195 49.6818 137.777C49.6462 137.189 49.5571 136.981 49.3077 136.946C49.0761 136.895 48.8267 137.223 48.3101 138.33C47.1699 140.699 45.8872 145.489 44.7827 151.438C44.1591 154.862 44.1235 158.563 44.6936 161.641C44.9074 162.73 45.0321 163.647 45.0143 163.682C44.9786 163.699 44.0344 161.952 42.9121 159.791C41.1127 156.315 39.1709 152.078 38.4761 150.193L38.2623 149.57L39.349 148.395C41.2018 146.44 43.5356 141.408 44.1057 138.157C44.8361 133.989 46.2079 115.434 45.8694 114.396C45.7269 113.947 45.4062 114.016 44.8005 114.638C42.7874 116.731 37.2825 126.259 36.1067 129.666C35.4831 131.482 34.9487 134.266 34.8062 136.341C34.7527 137.327 34.6636 138.105 34.628 138.071C34.343 137.777 32.8465 129.372 32.4189 125.637L32.2051 123.769L32.6683 123.423C33.9688 122.42 39.7053 114.396 41.0058 111.75C42.5201 108.672 48.1497 91.2926 47.9003 90.5317C47.7934 90.2551 45.3349 92.434 41.7897 95.9445C35.5366 102.101 34.1648 104.245 32.0983 110.972C31.5994 112.563 32.2408 104.193 33.0068 99.161L33.3809 96.6016L34.1114 96.2385C35.3584 95.6332 38.1198 93.5407 39.8835 91.8806C43.1793 88.7851 45.4953 85.9145 49.86 79.4987C51.3743 77.2679 53.3874 74.4146 54.3494 73.1694C55.3114 71.9243 56.1844 70.7311 56.2913 70.5409C56.5763 70.0394 56.5407 69.6417 56.22 69.6417C55.4896 69.6417 48.8267 73.2732 44.5511 76.0228C42.4311 77.3717 39.545 79.9138 38.1198 81.6777C37.6922 82.2138 37.1934 82.819 37.0331 83.0265C36.463 83.701 39.6341 75.3657 40.8633 72.9274C41.2196 72.2529 41.3443 72.1319 42.1282 71.9417C43.2684 71.6649 46.2613 70.2642 48.6486 68.8635C52.5145 66.5981 56.1488 63.9522 59.7831 60.753C60.9589 59.7154 62.8829 58.0899 64.0587 57.1387C67.1764 54.6312 67.9246 53.9222 67.8533 53.4899C67.7821 52.9711 67.016 52.9538 64.7713 53.3861C58.9814 54.5275 53.815 56.5508 49.5571 59.3696C48.6486 59.9748 47.8647 60.4763 47.8291 60.4763C47.544 60.4763 53.5477 52.435 54.2782 51.8125C54.5454 51.5876 55.1689 51.5012 56.9326 51.432C62.0634 51.2072 66.4994 49.9102 73.0554 46.7283C74.6766 45.9501 77.2419 44.7742 78.7562 44.1343C80.2705 43.4945 81.7848 42.7682 82.1055 42.5434C83.7623 41.3328 81.8026 40.7622 75.9949 40.7622C70.9175 40.7622 66.4103 41.3674 63.453 42.4569C63.061 42.5952 66.25 39.8629 68.459 38.1509C69.6705 37.2171 70.3475 36.802 70.5434 36.8712C71.4876 37.2344 73.9996 37.6667 75.9949 37.8396C78.8631 38.0644 81.8382 37.8742 88.9109 37.0441C91.7079 36.6983 95.2709 36.3351 96.8386 36.2141C99.6356 35.9893 100.58 35.7645 100.437 35.3494C100.152 34.502 94.2554 32.3231 89.8016 31.4239C86.3099 30.7321 81.3929 30.5592 78.7562 31.0607C78.3108 31.1472 77.9367 31.1991 77.9011 31.1818C77.8833 31.1472 79.4154 29.954 81.3038 28.5359L84.7421 25.9247L86.7018 25.7344C90.9774 25.3194 93.9526 23.7284 98.1926 19.63C100.58 17.3127 102.718 14.8571 104.054 12.8857C105.176 11.2601 105.426 10.603 105.105 10.2225C104.838 9.91124 104.749 9.92854 103.252 10.43Z" fill="#761917"/>
</svg>
