<svg width="359" height="321" viewBox="0 0 359 321" fill="none" xmlns="http://www.w3.org/2000/svg">
<g clip-path="url(#clip0_314_869)">
<path d="M146.26 290.02C225.656 290.02 290.02 225.656 290.02 146.26C290.02 66.8635 225.656 2.5 146.26 2.5C66.8635 2.5 2.5 66.8635 2.5 146.26C2.5 225.656 66.8635 290.02 146.26 290.02Z" fill="#F3F8EC" stroke="#57111A" stroke-width="5" stroke-miterlimit="10"/>
<path d="M151.12 275.89C150.15 279.23 149.53 285.2 149.42 288.37L164.06 287.66L165.81 274.26L151.38 276.29" fill="#751917"/>
<path d="M151.12 275.89C150.15 279.23 149.53 285.2 149.42 288.37L164.06 287.66L165.81 274.26L151.38 276.29" stroke="#57111A" stroke-width="3" stroke-miterlimit="10"/>
<path d="M179.9 271.51C179.82 275.3 180.76 281.81 181.47 285.21L195.35 281.07L193.59 266.37L180.25 271.87" fill="#751917"/>
<path d="M179.9 271.51C179.82 275.3 180.76 281.81 181.47 285.21L195.35 281.07L193.59 266.37L180.25 271.87" stroke="#57111A" stroke-width="3" stroke-miterlimit="10"/>
<path d="M224.94 39.5302C213.39 35.2502 182.71 29.2802 123.42 40.6402C75.0602 49.9102 63.2902 56.6302 50.1402 62.7102C39.7302 67.5302 46.7702 87.6402 48.6302 101.82C49.1702 105.9 43.1702 108.65 42.0802 109.69C37.6302 113.94 34.7702 114.87 24.1902 121.6C19.0602 124.86 16.5002 126.5 14.8302 127.94C7.48021 134.31 2.97021 142.45 3.90021 143.27C4.46021 143.76 6.77021 141.38 10.9602 138.59C11.9802 137.91 19.8602 132.86 28.8302 130.93C36.8802 129.2 43.0702 130.64 52.9602 132.97C74.1002 137.96 84.6702 140.46 88.5802 140.88C116.03 143.85 133.1 124.32 160.71 127.14C167.41 127.82 164.89 128.34 182.8 131.18C188.84 132.14 190.78 130.67 192.27 130.29C203.56 127.43 205.86 119.95 220.08 109.73C227.75 104.22 231.6 101.46 237.91 100.15C237.91 100.15 244.22 98.8402 261.5 100.65C261.5 100.65 265.3 100.19 267.19 99.5202C270.76 98.2602 271.46 94.9002 273.7 92.1102C279.27 85.1702 290.47 86.6202 290.42 85.4702C290.35 83.6802 263.99 82.9202 263.99 82.9202C242.45 82.2902 236.63 78.7902 230.29 77.3002C228.22 76.8202 228.87 74.1502 228.25 67.3402C225.91 41.7802 226.37 40.0402 224.94 39.5102V39.5302Z" fill="#8FCBB3"/>
<path d="M191.96 222.53C191.75 221.88 191.14 219.96 189.88 219.67C189.32 219.54 188.13 219.61 187.07 219.93C186.26 219.81 185.69 219.93 185.34 220.05C184.04 220.48 184 221.39 182.47 221.98C182.1 222.12 181.81 222.22 181.57 222.29C181.21 222.39 180.96 222.45 180.87 222.47C180.48 222.56 179.89 222.8 179.06 223.45C178.96 223.6 178.84 223.81 178.74 224.09C177.95 226.4 180.51 229.61 183.02 231.16C184.06 231.81 186.86 233.55 189.37 232.45C192.78 230.94 192.89 225.49 191.96 222.54V222.53Z" fill="#F29699"/>
<path d="M16.7799 136.44C16.9199 136.87 20.8899 135.49 26.4799 136.37C26.7099 136.41 27.0699 136.45 27.5299 136.56C28.8399 136.87 30.2799 137.53 35.0199 139.58C38.3899 141.04 40.6099 142.57 43.8799 143.13C46.3699 143.56 48.2999 143.39 50.8299 143.16C54.2999 142.85 54.9199 142.31 55.1699 142.05C56.7499 140.41 56.3499 136.82 54.6599 134.73C53.2199 132.95 51.1399 132.63 46.4899 132.09C37.9699 131.11 33.6999 130.62 32.1799 130.76C23.2299 131.6 16.5999 135.85 16.7799 136.43V136.44Z" fill="#476B5E"/>
<path d="M290.33 87.1302C290.87 88.0102 288.71 90.2702 287.93 91.0002C285.75 93.0302 283.26 93.4502 281.8 93.6702C279.23 94.0602 275.13 93.9402 274.92 92.8802C274.5 90.8002 289.11 85.1402 290.33 87.1202V87.1302Z" fill="#476B5E"/>
<path d="M66.64 136.83C76.97 139.91 85.66 139.64 93.87 139.38C96.98 139.28 104.44 138.92 113.78 137C120.24 135.67 121.02 134.95 135.06 131.04C145.9 128.02 151.39 126.51 154.82 126.46C163.41 126.34 173.02 128.85 174.78 129.31C179.7 130.6 184.37 132.28 189.71 130.35C191.48 129.71 192.54 128.96 194.48 127.63C205.68 119.91 203.95 121.83 209.63 117.59C214.25 114.14 218.54 110.53 226.99 104.48C230.63 101.87 232.75 100.26 233.03 101.52C233.92 105.55 234.75 116.09 236.14 128.32C237.98 144.57 237.71 139.64 243.41 199.72C245.5 221.73 245.23 222.04 245.76 224.74C245.85 225.21 246.15 226.64 246.11 228.55C246.1 229.31 245.98 233.13 243.54 237.66C240.88 242.59 236.98 245.56 234.11 247.55C223.48 254.92 213.62 258.26 213.62 258.26C194.61 266.65 183.19 268.57 169.51 271.76C169.51 271.76 140.27 278.57 127.49 276.99C125.69 276.77 123.77 276.02 120.58 276.4C118.51 276.65 116.98 276.59 115.49 276.31C114.15 276.06 114.03 274.25 113.36 274.35C112.7 274.45 112.4 275.8 112.34 276.05C111.78 278.41 109.67 280.92 105.45 285.92C101.91 290.12 94.85 294.72 86.43 295.66C85.42 295.77 75.5 296.77 69.93 291.9C69.23 291.29 66.01 288.47 65.91 285.49C65.91 285.38 65.88 284.37 65.87 283.01C65.86 280.17 65.96 280.02 65.74 279.64C64.9 278.19 62.76 279.27 61.03 277.66C60.01 276.71 59.31 274.99 59.67 273.57C60.03 272.15 61.29 271.73 61.12 270.59C61.02 269.91 60.54 269.85 60.01 268.8C60.01 268.8 59.46 267.71 59.41 266.33C59.33 263.98 60.98 263.22 60.77 261.8C60.56 260.39 58.76 259.83 56.94 258.84C52.73 256.55 49.56 252.59 48.51 249.39C47.54 246.44 48.28 243.85 49.12 240.9C50.1 237.45 51.96 233.49 62.44 221.29C67.39 215.53 68.62 215.71 68.34 214.07C66.79 204.87 65.69 196.93 64.94 192.45C60.17 163.85 55.9 137.13 54.42 132.85C53.66 130.66 57.83 134.16 66.64 136.79V136.83ZM66.92 234.93C66.57 236.69 66.21 238.44 65.86 240.2C65.86 240.2 68.09 243.84 68.22 243.84C68.35 243.84 71.98 243.33 71.98 243.33L70.45 232.54C69.27 233.34 68.1 234.14 66.92 234.93Z" fill="#E62D27"/>
<path d="M357.06 206.28C357.04 207.68 356.84 209.18 356.84 209.18C356.66 210.59 356.57 211.3 356.31 211.94C355.66 213.57 354.52 213.76 352.81 215.57C351.37 217.09 351.67 217.33 350.2 219.06C349.14 220.32 347.39 222.38 344.61 223.56C342.84 224.31 342.53 223.9 341.2 224.72C339.33 225.86 339.39 227 337.86 228.4C335.97 230.13 333.32 229.42 331 229.09C328.29 228.69 327.39 228.31 326.14 226.66C318.62 216.77 314.79 211.8 311.25 210.49C310.29 210.13 310.55 210.37 306.5 209.23C302 207.97 299.75 207.34 298.01 206.58C292.37 204.11 289.1 199.56 288.48 198.67C285.13 193.85 285.53 190.17 282.01 188.58C280.47 187.89 279.09 188 277.9 188.08C266.1 188.88 250.91 187.94 247.72 187.67C245.82 187.51 244.78 187.28 243.03 187.58C241.23 187.88 239.87 188.53 237.59 188.33C236.73 188.26 236.3 188.22 235.96 188.03C232.36 186.04 235.86 171.15 239.12 170.97C239.83 170.93 240.27 171.62 242.11 171.84C242.98 171.95 243.36 171.85 244.85 171.82C246.13 171.79 246.79 171.84 248.17 171.88C250.42 171.95 254.69 172.01 257.8 171.93C261.23 171.85 263.77 171.59 266.45 171.31C275.82 170.33 280.51 169.84 285.27 168.17C290.68 166.27 295.66 164.44 298.38 159.57C300.63 155.54 300.39 151.11 300.32 150.04C300.02 145.54 298.2 144.35 297.7 138.4C297.48 135.69 297.34 133.82 298.25 131.6C298.68 130.53 300.39 126.84 304.6 125.42C308.92 123.97 312.57 126.02 313.31 126.46C316.59 128.41 317.16 132.25 317.45 133.74C318.64 139.79 316.37 148.34 315.14 151.64C314.95 152.16 314.4 153.56 315.04 154.63C315.73 155.78 317.43 155.92 317.9 155.97C323.15 156.54 333.75 163.14 336.77 165.4C340.53 168.21 338.05 168.39 346.6 182.38C346.6 182.38 357.18 199.69 357.07 206.3L357.06 206.28Z" fill="#E62B27"/>
<path d="M72.69 230.06C72.9 229.39 79.33 219.82 79.33 222.91C79.33 226.53 82.33 236.57 78.6 243.12C76.78 246.31 80.39 242.52 76.3 243.89C72.21 245.26 71.07 235.12 72.68 230.06H72.69Z" fill="#751917"/>
<path d="M233.51 115.02C238.19 138.65 241.02 164.08 243.43 187.32L245.57 209.63C246.09 217.22 247.2 224.88 245.37 232.49C244.59 236.4 241.88 239.81 239.06 242.47C236.29 245.14 233.25 247.44 230.08 249.51C223.72 253.61 216.86 256.83 209.74 259.15C216.54 256.04 223.07 252.37 228.99 247.94C233.9 244.12 239.07 239.95 241.73 234.26C244.11 226.5 242.48 218.01 241.76 210C241.03 202.87 240.02 194.05 239.51 187.72C237.26 164.27 235.21 138.51 233.52 115.02H233.51Z" fill="#F29699"/>
<path d="M160.07 177.29C159.33 179.38 158.18 181.19 158.54 183.8C158.68 184.84 158.94 185.12 159.18 185.2C159.99 185.48 161.69 183.59 162.63 181.75C163.04 180.95 163.12 180.52 163.41 180.48C164.13 180.4 165.14 182.77 165.56 184.72C166.72 190.01 164.21 195.06 163.01 197.49C162.09 199.35 161.63 200.28 160.8 201.4C159.97 202.53 159.27 203.2 159.44 203.44C159.66 203.75 161.22 203.13 162.33 202.42C165.05 200.66 166.01 197.63 166.93 194.59C168.06 190.85 168.2 187.8 168.29 185.74C168.32 185.03 168.42 182.26 167.95 178.08C167.17 171.16 166.64 166.44 163.18 162.76C162.3 161.83 160.86 160.34 158.58 159.87C154.65 159.06 150.72 161.79 150.92 162.59C151.08 163.23 153.71 162.11 156.54 163.61C159.67 165.28 160.67 168.89 160.8 169.4C161.68 172.79 160.49 176.12 160.08 177.27L160.07 177.29Z" fill="#F2979A"/>
<path d="M205.15 166.91C204.41 169 203.26 170.81 203.62 173.42C203.76 174.46 204.02 174.74 204.26 174.82C205.07 175.1 206.77 173.21 207.71 171.37C208.12 170.57 208.2 170.14 208.49 170.1C209.21 170.02 210.22 172.39 210.64 174.34C211.8 179.63 209.29 184.68 208.09 187.11C207.17 188.97 206.71 189.9 205.88 191.02C205.05 192.15 204.35 192.82 204.52 193.06C204.74 193.37 206.3 192.75 207.41 192.04C210.13 190.28 211.09 187.25 212.01 184.21C213.14 180.47 213.28 177.42 213.37 175.36C213.4 174.65 213.5 171.88 213.03 167.7C212.25 160.78 211.72 156.06 208.26 152.38C207.38 151.45 205.94 149.96 203.66 149.49C199.73 148.68 195.8 151.41 196 152.21C196.16 152.85 198.79 151.73 201.62 153.23C204.75 154.9 205.75 158.51 205.88 159.02C206.76 162.41 205.57 165.74 205.16 166.89L205.15 166.91Z" fill="#F2979A"/>
<path d="M74.0799 245.41C74.2499 245.92 78.9498 245.04 82.8798 243.84C86.8098 242.65 87.3699 241.94 90.1399 241.6C93.7599 241.16 96.4999 241.92 97.0599 242.09C100.11 242.98 102.08 244.54 103.63 245.79C104.64 246.61 106.87 248.44 108.7 251.41C111.6 256.12 111.67 260.78 111.74 264.81C111.83 270.35 110.61 274.44 110.33 275.37C108.93 279.9 107.75 282.47 108.11 282.72C108.65 283.09 113.45 278.56 114.41 272.65C114.45 272.4 114.48 269.68 114.55 264.24C114.57 262.13 114.58 261.28 114.55 260.15C114.47 256.86 114.18 254.12 114.07 253.41C113.32 248.32 106.54 242.14 98.9199 239.96C91.6899 237.89 85.3699 240.31 80.7099 242C77.5199 243.16 73.9199 244.93 74.0799 245.4V245.41Z" fill="#F29699"/>
<path d="M47.7398 86.48C47.1498 89.7 46.5598 95.83 50.0398 100.78C54.1998 106.69 61.9198 107.7 66.1298 108.18C98.1798 111.89 114.21 113.74 130.73 111.75C146.93 109.8 160.68 105.68 188.18 97.45C224.09 86.71 206 87.91 218.82 84.24C220.5 83.76 227.54 81.82 228.27 77.79C228.44 76.85 228.17 76.51 228.13 72.69C228.11 71.33 228.13 69.68 228.24 67.71C228.44 63.8 228.76 62.62 228.02 61.96C225.87 60.07 218.51 65.67 212.96 69.11C207.29 72.62 199.39 75.45 183.6 81.11C145.22 94.86 108.79 95.15 108.79 95.15C94.1698 95.27 72.8098 93.87 47.7698 86.47L47.7398 86.48Z" fill="#F29699"/>
<path d="M55.8298 112.1C55.9998 112.72 44.8598 115.16 35.0598 121.29C28.2498 125.55 23.6598 129.91 23.6598 129.91C22.6798 130.84 22.0098 131.55 21.9598 131.5C21.8098 131.36 26.9098 123.76 34.0498 118.73C44.1298 111.62 55.6698 111.48 55.8398 112.09L55.8298 112.1Z" fill="#476B5E"/>
<path d="M330.23 161.38C338.53 166.7 342.52 176.13 347.22 184.35C350.8 191.81 359 203.1 354.8 211.42C355.26 209.06 355.15 206.69 354.43 204.54C352.23 198.12 347.73 191.84 344.6 185.8C342.34 181.61 340.17 177.32 338.13 173.04C336.1 168.74 333.33 164.99 330.23 161.39V161.38Z" fill="#F29699"/>
<path d="M303.08 127.12C310.59 123.01 316.37 128.03 317.55 135.71C318.48 142.22 316.84 148.91 313.91 154.64C312 158.4 309.74 162.05 306.88 165.17C310.26 157.71 313.84 150.15 314.67 142C315.63 133.76 313.37 124.72 303.07 127.13L303.08 127.12Z" fill="#F29699"/>
<path d="M192.21 221.75C191.75 221.33 191.04 220.76 190.1 220.23C188.87 219.53 187.81 218.94 186.65 219.12C185.56 219.29 185.7 219.93 184.09 220.76C182.19 221.73 181.33 221.18 180.01 222.25C179 223.07 178.99 223.82 178.61 223.79C177.61 223.69 176.09 218.27 178.37 215.38C179.7 213.7 181.18 214.31 184.18 212.83C189.28 210.32 190.37 205.91 191.71 206.26C192.73 206.52 193.52 209.45 192.22 221.77L192.21 221.75Z" fill="#751917"/>
<path d="M261.29 99.6701C250.57 91.6101 237.52 87.5701 224.14 87.6301C237.41 84.6701 252.37 89.3501 261.29 99.6701Z" fill="#476B5E"/>
<path d="M124.93 42.0002C145.62 37.5702 166.75 35.5403 187.9 34.9903C194.93 34.7403 202.2 35.1703 209.16 35.8603L214.42 36.3902C217.11 36.8202 223.39 36.7403 223.76 40.4903C223.69 43.7903 219.17 45.5303 216.91 46.8303C210.61 49.9503 204.33 53.1103 197.95 56.1103C185.09 62.2502 171.19 65.2902 157.35 68.1302C168.99 64.2302 180.74 60.7202 191.89 55.5903C194.99 54.1702 211.78 45.1602 215.16 43.4202C216.82 42.5302 218.69 41.6602 219.92 40.3202C219.97 40.2602 219.97 40.2202 219.92 40.3402C219.9 40.4002 219.88 40.5102 219.88 40.6602C219.88 40.7702 219.95 41.0702 220.02 41.1802C220.18 41.4502 220.24 41.4302 220.19 41.4202C218.31 40.5902 216.22 40.5302 214.01 40.2802C207.18 39.7102 200 38.9003 193.19 38.7903C170.38 38.7303 147.68 39.9203 124.91 41.9903L124.93 42.0002Z" fill="#CDE6D6"/>
<path d="M287.14 86.2C277.29 87.45 267.35 87.35 257.47 86.49C252.55 85.95 247.58 85.43 242.72 83.95C237.91 82.52 233.36 80.52 228.96 78.23C235.01 79.6 240.81 81.35 246.86 82.29C260.24 84.07 273.7 84.69 287.14 86.2Z" fill="#CDE6D6"/>
<path d="M175.38 128.28C179.05 128.73 182.96 129.33 186.6 128.67C191.88 126.88 196.52 123.49 200.77 119.93C207.86 113.53 215.11 106.94 223.38 102.05C233.45 95.3102 245.91 94.1802 257.34 97.8902C249.89 97.2902 242.14 97.5202 235.14 100.09C229.91 102.02 225.33 105.33 220.74 108.46C216.27 111.57 211.57 115.42 207.3 118.86C201.37 123.76 194.66 128.54 186.88 130C182.94 130.35 179.12 129.29 175.37 128.28H175.38Z" fill="#CDE6D6"/>
<path d="M163.63 125.88C152 125.16 140.48 127.45 129.75 131.77C110.68 139.52 88.72 142.47 68.64 136.61C60.22 134.41 52.02 130.93 43.5 129.49C37.8 128.49 31.98 128.31 26.27 129.61C31.8 127.53 37.85 127.12 43.74 127.57C55.45 128.59 66.48 133.26 77.94 134.84C89.27 136.39 100.83 135.88 112.04 133.46C117.67 132.31 123.22 130.72 128.69 128.88C139.85 125.09 152.06 123.74 163.63 125.87V125.88Z" fill="#CDE6D6"/>
<path d="M164.96 126.75C162.3 125.61 160.03 123.56 157.74 121.88C153.9 118.87 150.48 115.38 147.92 111.13C150.79 112.16 153.26 113.64 155.72 115.32C159.97 118.02 163.48 121.82 164.96 126.74V126.75Z" fill="#CDE6D6"/>
<path d="M192.6 222.81L190.1 220.22L185.79 219.66L184.09 220.74L181.8 221.41L179.07 223.15L180 226.47L184.17 230.3L187.66 231.49L190.22 229.36L192.6 222.81Z" fill="#F29699"/>
<path d="M332.71 172.97C334.78 177.61 335.27 183.35 333.28 188.22C332.87 189.01 332.44 189.7 332.36 190.26C332.27 190.8 332.48 191.25 332.92 191.71L332.74 191.57C340.58 196.6 350.61 204.08 352.15 213.84C350.43 209.09 347.14 205.45 343.45 202.15C339.8 198.86 335.88 195.85 331.73 193.22C330.8 192.5 330.29 191.09 330.57 189.93C330.83 188.82 331.4 188.1 331.78 187.41C333.78 183.11 333.81 177.65 332.72 172.98L332.71 172.97Z" fill="#57111A"/>
<path d="M331.99 188.65C330.98 191.98 329.19 195.83 326.57 197.9C326.6 197.74 326.52 197.69 326.61 197.76C326.68 197.82 326.84 197.9 327.01 197.96C330.15 199.16 332.73 201.5 335.22 203.66C340.5 208.59 347.47 215.69 342.65 223.27C344.8 217.33 341.9 213.02 337.8 208.96C334.29 205.51 330.75 201.74 326.33 199.5C324.49 198.63 324.69 197.14 326.3 196.21C328.77 194.26 330.36 191.36 331.99 188.65Z" fill="#57111A"/>
<path d="M323.7 205.56C321.34 208.74 317.37 210.93 313.38 211.06C313.3 211.07 313.28 211.1 313.36 211.07C313.48 211.06 313.77 210.81 313.83 210.6C313.88 210.44 313.88 210.3 313.87 210.21C313.84 210.14 313.91 210.24 313.91 210.24C315.42 211.89 317.52 213.2 319.11 214.89C321.12 217.1 322.95 219.03 325.07 221.12C326.4 222.5 327.78 223.83 329.14 225.12C330.52 226.45 331.62 227.28 333.52 227.02C335.28 226.88 337.04 226.03 338.7 225.02C336.89 227.32 333.58 229.42 330.44 228.55C327.5 227.29 325.47 225.14 323.12 223.18C320.17 220.73 317.81 217.58 315.01 214.98C313.73 213.64 309.45 210.55 312.48 208.86C313.27 208.6 313.99 208.79 314.65 208.76C317.94 208.74 320.96 207.39 323.71 205.56H323.7Z" fill="#57111A"/>
<path d="M125.39 40.1901C88.2499 46.5301 43.6499 61.5501 44.5999 67.7601C45.5999 74.2301 99.6799 79.7401 143.36 72.7501C182.43 66.5001 225.08 46.5901 224.13 40.1901C223.15 33.5901 171.88 32.2601 125.38 40.1901H125.39Z" stroke="#57111A" stroke-width="3" stroke-miterlimit="10"/>
<path d="M228.11 78.2402C228.17 72.8802 228.33 64.7502 228.11 59.2202C227.88 53.4002 226.73 44.4502 224.14 40.2002" stroke="#57111A" stroke-width="3" stroke-miterlimit="10"/>
<path d="M49.8798 101.6C48.0498 95.9203 47.2298 92.5103 46.0498 87.0503C44.9498 81.9803 44.5898 74.0303 44.5898 68.2603" stroke="#57111A" stroke-width="3" stroke-miterlimit="10"/>
<path d="M49.6099 100.74C64.5399 111.3 106.2 115.31 149.65 108.24C184.25 102.61 217.56 87.81 228.97 76.75" stroke="#57111A" stroke-width="3" stroke-miterlimit="10"/>
<path d="M45.6499 83.9202C60.5799 94.4802 102.24 98.4902 145.69 91.4202C180.29 85.7902 216.71 70.2802 228.11 59.2202" stroke="#57111A" stroke-width="3" stroke-miterlimit="10"/>
<path d="M46.5098 92.9603C61.4398 103.52 103.1 107.53 146.55 100.46C181.15 94.8303 217.57 79.3203 228.97 68.2603" stroke="#57111A" stroke-miterlimit="10"/>
<path d="M50.23 102.23C47.47 105.28 43.06 109.7 36.88 114.02C27.97 120.25 23.79 120.53 16.41 126.36C7.80999 133.16 2.48999 142 3.63999 143.21C5.04999 144.7 14.26 132.55 30.49 130.36C32.39 130.1 36.77 128.18 52.7 132.91C71.55 138.5 80.72 139.67 81.81 139.8C99.35 141.95 114.89 137.41 124.19 134.69C136.45 131.11 138.87 129.63 148.45 127.8C154.45 126.65 162.71 126.55 172.19 129.08C183.68 132.14 185.5 131.46 189.3 130.87C194.12 130.12 197.04 128.26 213.3 115.55C227.23 104.66 228.99 102.98 233.98 101.25C236.68 100.31 243.59 97.93 252.36 98.7C259.33 99.31 259.66 101.23 263.85 100.49C270.58 99.29 269.45 94.57 279.17 89.77C284.79 86.99 290.24 86.31 290.15 85.43C290.02 84.13 275.49 84.28 262.58 83.13C248.48 81.87 236.98 79.1 228.96 76.75" stroke="#57111A" stroke-width="3" stroke-miterlimit="10"/>
<path d="M69.0102 214.71C63.5302 187.54 59.6002 160.09 54.9702 132.76" stroke="#57111A" stroke-width="3" stroke-miterlimit="10"/>
<path d="M233.69 102.13C238.77 144.14 242.77 186.12 246.77 229.1C246.77 229.13 246.77 229.17 246.77 229.21C246.74 237.19 240.76 244.17 234.77 248.16C203.77 267.16 169.86 275.55 134.77 277.16C127.89 277.48 120.6 276.81 114.25 276.39C113.73 276.36 113.37 275.87 113.49 275.36C116.12 263.86 115.8 250.46 107.05 243.65C102.05 239.65 97.1801 237.95 90.7701 238.16C84.9701 238.35 80.2201 242.73 74.5801 243.13C74.1301 243.16 73.7401 242.81 73.7001 242.36C73.3501 238.12 72.7401 233.07 71.8501 229.82" stroke="#57111A" stroke-width="3" stroke-miterlimit="10"/>
<path d="M86.2001 200.24C76.9301 208.52 68.2301 217.26 60.6901 227.08C58.1901 230.32 55.7401 233.64 53.6701 237.09C51.6201 240.5 49.8601 244.22 50.1801 247.84C50.4701 251.76 53.2701 254.6 56.2701 257.01C62.5501 262.37 69.9901 265.94 78.0301 267.89C69.6901 267.19 61.5001 263.96 54.8501 258.86C45.5701 252.65 45.5601 244.47 51.1001 235.54C60.1401 221.38 72.2801 209.45 86.2001 200.22V200.24Z" fill="#57111A"/>
<path d="M90.7302 209.84C86.1002 214.51 82.4902 219.89 78.1602 224.8C75.0802 228.94 65.8902 236.15 67.6602 241.45C68.3302 243.54 69.5902 244 71.6402 243.36C76.0502 242.04 80.7402 239.83 85.2802 238.38C88.3802 237.32 91.8602 236.28 95.1802 237.06C96.8402 237.44 98.3602 238.2 99.6402 239.23C98.1902 238.47 96.6202 238.01 95.0602 237.88C91.8402 237.63 88.9102 238.91 86.0102 240.21C81.5502 242.11 77.0402 244.53 72.4302 246.09C67.6902 247.86 64.2502 244.04 64.4502 239.42C64.6002 237.39 65.4602 235.67 66.4102 234.2C69.2302 230.01 73.1002 226.82 76.4502 223.2C80.9502 218.54 85.2702 213.43 90.7502 209.83L90.7302 209.84Z" fill="#57111A"/>
<path d="M61.43 262.43C60.09 264.97 60.6 267.57 60.74 268.14C61.45 271.18 67.23 273.45 73.12 271.84" stroke="#57111A" stroke-width="3" stroke-miterlimit="10"/>
<path d="M62.1498 270.23C60.7598 273 60.6298 276.06 62.1398 278.08C63.7898 280.29 66.7698 280.38 69.3698 280.46C73.0198 280.57 75.8798 279.44 77.4598 278.67" stroke="#57111A" stroke-width="3" stroke-miterlimit="10"/>
<path d="M66.8299 280.97C66.6099 282.35 66.1299 285.74 66.9899 287.95C70.0099 295.7 81.9999 296.41 83.0799 296.46C90.6499 296.81 96.7199 293.52 100.63 291.06C108.05 286.39 111.78 280.48 113.43 275.69" stroke="#57111A" stroke-width="3" stroke-miterlimit="10"/>
<path d="M72.8599 266.66C73.6799 273.54 76.8499 277.1 83.3999 279.04C85.3199 279.61 87.3399 279.94 89.5399 280.19C88.5499 280.7 87.4699 281 86.3699 281.21C77.7899 282.73 69.0699 275.56 72.8599 266.65V266.66Z" fill="#57111A"/>
<path d="M239.99 171.83C252.67 171.17 265.47 170.6 277.92 168.14C285.81 166.47 293.03 164.73 297.3 157.73C297.95 156.54 298.28 155.2 298.42 153.71C298.65 150.77 298.76 147.54 298.11 144.66C297.69 142.35 296.44 140.17 295.9 137.83C294.93 133.37 296.83 128.53 300.32 125.74C304.46 122.09 311.22 122.1 315.14 126.06C319.33 130.45 318.83 137.52 318.39 143.03C317.74 148.72 314.92 153.94 311.91 158.67C310.19 161.38 308.2 163.92 305.99 166.23C310.71 159.96 314.76 152.87 316.28 145.14C316.91 140.17 317.17 131.56 313.44 127.93C310.28 124.94 305.37 125.01 302.14 127.93C298.85 130.68 297.6 135.33 299.45 139.24C300.79 142.25 301.6 145.77 301.54 149.08C301.48 152.5 301.56 155.98 299.82 159.14C297.03 163.54 292.73 166.75 287.83 168.26C272.29 172.76 255.88 172.4 239.98 171.83H239.99Z" fill="#57111A"/>
<path d="M241.46 187.5C254.98 187.11 268.49 184.76 282 186.71L282.69 186.81L283.05 187.43C286.24 192.9 289.3 198.33 294.2 202.29C302.37 208.97 314.09 209.53 323.7 205.56C316.26 210.14 306.55 211.16 298.35 207.79C289.91 204.51 284.58 196.44 280.5 188.87L281.55 189.59C278.3 189.09 275 188.8 271.68 188.62C261.64 188.13 251.47 188.77 241.45 187.48L241.46 187.5Z" fill="#57111A"/>
<path d="M317.63 201.14C324.92 196.07 330.18 188.6 331.4 179.78C331.82 176.9 331.92 173.93 331.76 170.84C337.48 182.48 330.39 198.23 317.63 201.14Z" fill="#57111A"/>
<path d="M310.2 208.87C311.5 211.53 326.41 228.03 330.49 229.51C332.14 230.11 335.55 230.31 339.25 226.67C339.25 226.67 341.77 224.21 342.31 220.37C343.26 213.6 333 205.15 322.83 198" stroke="#57111A" stroke-width="3" stroke-miterlimit="10"/>
<path d="M328.58 191.81C329.5 192.18 345.24 202.94 350.35 212.74C351.22 214.42 350.78 218.92 347.97 221.62C345.77 223.74 341.27 223.14 341.37 223.52" stroke="#57111A" stroke-width="3" stroke-miterlimit="10"/>
<path d="M313.77 154.48C319.29 154.95 328.79 157.05 334.84 163.17C339.54 167.93 338.86 168.55 346.14 181.57C347.76 184.47 353.33 192.93 356.35 203.14C357.05 205.51 357.86 208.98 356.22 211.99C354.99 214.24 352.6 215.22 351.2 215.65" stroke="#57111A" stroke-width="3" stroke-miterlimit="10"/>
<path d="M205.35 159.81C205.31 155.77 201.84 150.66 198.5 151.35C193.62 152.36 190.9 165.18 193.22 175.52C194.76 182.37 199.16 190.95 203.18 190.58C206.51 190.28 208.69 183.8 209.31 180.37C210.22 175.25 209.43 170.64 209.03 170.28C208.85 170.12 208.37 171.23 207.26 173.22C206.28 174.98 205.01 175.01 203.98 174.56C202.56 173.94 202.08 170.75 203.43 166.84C204.92 162.51 205.37 162.33 205.34 159.82L205.35 159.81Z" fill="#57111A" stroke="#57111A" stroke-width="3" stroke-miterlimit="10"/>
<path d="M159.73 171.29C159.69 167.25 156.22 162.14 152.88 162.83C148 163.84 145.28 176.66 147.6 187C149.14 193.85 153.54 202.43 157.56 202.06C160.89 201.76 163.07 195.28 163.69 191.85C164.6 186.73 163.81 182.12 163.41 181.76C163.23 181.6 162.75 182.71 161.64 184.7C160.66 186.46 159.39 186.49 158.36 186.04C156.94 185.42 156.46 182.23 157.81 178.32C159.3 173.99 159.75 173.81 159.72 171.3L159.73 171.29Z" fill="#57111A" stroke="#57111A" stroke-width="3" stroke-miterlimit="10"/>
<path d="M5.3501 142.71C16.9901 135.11 24.4901 135.14 29.1801 136.58C34.3101 138.15 37.4601 141.82 45.0101 142.96C49.8501 143.69 53.9601 143 56.5701 142.35" stroke="#57111A" stroke-width="2" stroke-miterlimit="10"/>
<path d="M290.54 85.5601C288.8 90.6701 285.81 92.5601 283.73 93.0501C281.61 93.5501 280.1 92.9301 277.09 93.6901C274.5 94.3401 272.12 95.5701 270.9 96.5001" stroke="#57111A" stroke-width="2" stroke-miterlimit="10"/>
<path d="M196.6 199.45C195.11 202.3 193.2 204.94 191.05 207.37C188.84 209.81 186.33 212.23 183.21 213.46C181.67 214.23 179.61 214.5 178.5 215.73C176.34 220.46 179.9 226.33 184.1 229.1C185.32 230 186.58 230.65 187.42 230.52C189.74 230.01 190.53 226.16 191.09 223.92C192.33 217.72 192.74 211.39 191.89 205.07C194.51 210.89 196.26 237.29 184.73 232.85C178.12 229.78 172.42 221.44 176.24 214.29C177.73 212.3 180.29 212.06 182.37 211.29C188.21 209.09 192.57 204.09 196.61 199.46L196.6 199.45Z" fill="#57111A"/>
<path d="M181.5 208.05C178.39 213.8 175.95 219.28 173.67 225.41C171.64 218.84 175.24 210.88 181.5 208.05Z" fill="#57111A"/>
<path d="M178.6 223.77C180.25 217.78 188.32 220.54 188.24 225.88C187.47 225.06 186.79 224.34 186.03 223.77C183.74 221.87 180.95 221.82 178.61 223.77H178.6Z" fill="#57111A"/>
<path d="M183.39 221.73C183.53 219.9 185.16 218.29 187.01 218.06C189.46 217.94 191.6 219.99 191.93 222.29C190.56 221.34 189.1 220.38 187.6 220.07C186 219.96 184.8 220.83 183.4 221.74L183.39 221.73Z" fill="#57111A"/>
<path d="M138.43 218.57C136.06 217.22 130.19 214.65 131.83 219.88C133.32 224.61 143.6 223.85 147.62 223.33C143.2 224.75 132.69 225.87 130.94 220.16C129.41 213.92 135.6 216.09 138.43 218.57Z" fill="#57111A"/>
<path d="M222.09 213.63C221.47 211.42 222.18 208.81 224.11 207.44C225.04 206.61 226.82 206.14 227.67 207.38C230.61 212.73 225.3 218.92 221.15 221.89C224.38 218.52 229.22 212.76 226.91 207.95C226.33 207.11 225.28 207.6 224.55 208.06C222.72 209.16 221.9 211.41 222.09 213.63Z" fill="#57111A"/>
<path d="M212.18 242.99C213.17 241.86 215.79 240.75 216.51 242.73C216.87 244.5 216.1 246.03 215.17 247.44C213.95 249.51 208.95 250.45 209.42 246.93C209.6 246.11 210.05 245.4 210.65 244.9C210.22 245.54 209.91 246.26 209.91 246.98C209.8 248.74 211.67 248.62 212.81 248.12C214.6 247.28 215.84 244.85 215.76 242.94C215.28 241.51 213.13 242.45 212.18 242.99Z" fill="#57111A"/>
<path d="M225.27 154.21C224.24 155.3 221.58 156.3 220.94 154.29C220.66 152.5 221.48 151.01 222.47 149.64C223.77 147.62 228.81 146.89 228.19 150.38C227.98 151.2 227.5 151.88 226.88 152.35C227.33 151.72 227.68 151.02 227.71 150.3C227.89 148.55 226.02 148.59 224.86 149.05C223.04 149.82 221.7 152.19 221.7 154.11C222.12 155.56 224.31 154.71 225.28 154.2L225.27 154.21Z" fill="#57111A"/>
<path d="M80.5402 179.2C79.2802 178.38 77.8102 175.95 79.6802 174.95C81.3902 174.35 83.0001 174.89 84.5301 175.62C86.7601 176.54 88.3802 181.36 84.8302 181.38C83.9902 181.32 83.2302 180.97 82.6502 180.45C83.3502 180.78 84.1001 181 84.8101 180.89C86.5601 180.75 86.1901 178.92 85.5301 177.86C84.4401 176.2 81.8702 175.32 79.9802 175.66C78.6302 176.34 79.8601 178.34 80.5301 179.2H80.5402Z" fill="#57111A"/>
<path d="M143.38 167.95C141.29 159.87 150.94 153.61 157.56 158.51C155.83 158.21 154.18 158.13 152.6 158.37C147.61 159.02 144.22 163.09 143.37 167.95H143.38Z" fill="#57111A"/>
<path d="M189.93 158.24C186.22 150.76 194.37 142.65 201.87 146.08C200.11 146.14 198.49 146.4 196.99 146.96C192.24 148.62 189.76 153.31 189.93 158.24Z" fill="#57111A"/>
<path d="M166.3 127.81C160.44 121.76 154.4 116.19 147.92 110.82C155.88 113.81 162.69 120.12 166.3 127.81Z" fill="#57111A"/>
<path d="M261.29 99.6702C249.26 94.0402 236.72 90.0402 223.67 87.5902C237.03 87.2602 250.63 91.6102 261.29 99.6702Z" fill="#57111A"/>
<path d="M21.3701 132.22C30.0401 121.86 42.5401 114.55 55.8301 112.1C43.4301 117.23 31.9201 123.93 21.3701 132.22Z" fill="#57111A"/>
<path d="M195.83 317.55C196.96 317.72 197.24 318.25 197.28 318.55C197.35 319.16 196.88 319.66 196.37 320.02" stroke="#CDE6D6" stroke-miterlimit="10"/>
</g>
<defs>
<clipPath id="clip0_314_869">
<rect width="358.68" height="320.42" fill="white"/>
</clipPath>
</defs>
</svg>
