<svg width="357" height="341" viewBox="0 0 357 341" fill="none" xmlns="http://www.w3.org/2000/svg">
<path d="M155.61 340.13C217.024 340.13 266.81 337.569 266.81 334.41C266.81 331.251 217.024 328.69 155.61 328.69C94.1956 328.69 44.4097 331.251 44.4097 334.41C44.4097 337.569 94.1956 340.13 155.61 340.13Z" fill="#751917"/>
<path d="M222.95 6.30018C211.4 2.02018 180.72 -3.94982 121.43 7.41018C73.07 16.6802 61.3 23.4002 48.15 29.4802C37.74 34.3002 44.78 54.4102 46.64 68.5902C47.18 72.6702 41.18 75.4202 40.09 76.4602C35.64 80.7102 32.78 81.6402 22.2 88.3702C17.07 91.6302 14.51 93.2702 12.84 94.7102C5.48998 101.08 0.97998 109.22 1.90998 110.04C2.46998 110.53 4.77998 108.15 8.96998 105.36C9.98998 104.68 17.87 99.6302 26.84 97.7002C34.89 95.9702 41.08 97.4102 50.97 99.7402C72.11 104.73 82.68 107.23 86.59 107.65C114.04 110.62 131.11 91.0902 158.72 93.9102C165.42 94.5902 162.9 95.1102 180.81 97.9502C186.85 98.9102 188.79 97.4402 190.28 97.0602C201.57 94.2002 203.87 86.7202 218.09 76.5002C225.76 70.9902 229.61 68.2302 235.92 66.9202C235.92 66.9202 242.23 65.6102 259.51 67.4202C259.51 67.4202 263.31 66.9602 265.2 66.2902C268.77 65.0302 269.47 61.6702 271.71 58.8802C277.28 51.9402 288.48 53.3902 288.43 52.2402C288.36 50.4502 262 49.6902 262 49.6902C240.46 49.0602 234.64 45.5602 228.3 44.0702C226.23 43.5902 226.88 40.9202 226.26 34.1102C223.92 8.55018 224.38 6.81018 222.95 6.28018V6.30018Z" fill="#8FCBB3"/>
<path d="M189.97 189.3C189.76 188.65 189.15 186.73 187.89 186.44C187.33 186.31 186.14 186.38 185.08 186.7C184.27 186.58 183.7 186.7 183.35 186.82C182.05 187.25 182.01 188.16 180.48 188.75C180.11 188.89 179.82 188.99 179.58 189.06C179.22 189.16 178.97 189.22 178.88 189.24C178.49 189.33 177.9 189.57 177.07 190.22C176.97 190.37 176.85 190.58 176.75 190.86C175.96 193.17 178.52 196.38 181.03 197.93C182.07 198.58 184.87 200.32 187.38 199.22C190.79 197.71 190.9 192.26 189.97 189.31V189.3Z" fill="#F29699"/>
<path d="M14.7897 103.21C14.9297 103.64 18.8997 102.26 24.4897 103.14C24.7197 103.18 25.0797 103.22 25.5397 103.33C26.8497 103.64 28.2897 104.3 33.0297 106.35C36.3997 107.81 38.6197 109.34 41.8897 109.9C44.3797 110.33 46.3097 110.16 48.8397 109.93C52.3097 109.62 52.9297 109.08 53.1797 108.82C54.7597 107.18 54.3597 103.59 52.6697 101.5C51.2297 99.7204 49.1497 99.4004 44.4997 98.8604C35.9797 97.8804 31.7097 97.3904 30.1897 97.5304C21.2397 98.3704 14.6097 102.62 14.7897 103.2V103.21Z" fill="#476B5E"/>
<path d="M288.34 53.9002C288.88 54.7802 286.72 57.0402 285.94 57.7702C283.76 59.8002 281.27 60.2202 279.81 60.4402C277.24 60.8302 273.14 60.7102 272.93 59.6502C272.51 57.5702 287.12 51.9102 288.34 53.8902V53.9002Z" fill="#476B5E"/>
<path d="M141.44 294.99C140.71 293.52 138.7 294.23 137.45 292.44C135.96 290.3 136.72 286.24 138.88 284.87C140.7 283.72 142.45 285.16 143.59 284.03C144.98 282.65 143.86 279.04 142.37 276.88C142.23 276.67 139.21 272.43 135.43 272.81C132.65 273.09 131.79 275.63 128.56 275.65C127.08 275.66 126.08 274.92 125.47 274.9C120.49 274.75 110.41 275.5 103.13 276.9C99.2599 277.65 99.2999 284.55 97.8599 295.03C95.2599 313.97 99.5199 316.36 98.6699 330.16C98.6099 331.14 98.4499 333.37 99.8099 335.11C102.13 338.08 107.18 337.51 110.92 337.28C130.28 336.09 135.18 338.3 147.24 337.8C150.7 337.66 150.72 334.81 154.08 334.82C162.12 334.83 168.71 335.87 172.59 335.63C183.06 334.99 204.63 336.43 211.53 334.83C215.67 333.87 213.96 325.43 213.59 323.89C211.78 316.25 204.54 312.75 203.34 312.19C193.88 307.82 182.99 312.54 181.91 313.02C177.8 314.87 174.92 315.5 172.85 316.47C171.53 317.08 172.48 312.66 172.58 312.3C173.18 309.99 174.36 309.8 174.77 308.04C175.34 305.58 173.78 302.64 171.58 301.15C169.75 299.91 166.85 299.26 165.84 300.38C164.98 301.32 166.12 302.79 165.2 303.95C164.83 304.41 164.15 304.81 160.48 304.72C156.38 304.61 154.34 304.56 153.84 303.44C153.23 302.08 155.33 300.27 154.91 299.87C154.49 299.46 151.86 300.93 150.13 303.31C149.48 304.21 148.03 306.19 148.34 308.54C148.52 309.92 149.12 310 149.62 311.86C150.04 313.43 150.34 316.15 149.36 316.71C148.44 317.23 147.09 315.47 144.76 314.03C138.37 310.07 134.02 309.58 130.33 309.82C129.54 309.87 130.39 309.12 129.82 305.61C129.45 303.34 129.18 302.69 129.56 302.29C130.42 301.4 132.6 303.63 135.3 303.31C139.18 302.86 142.63 297.35 141.45 294.97L141.44 294.99Z" fill="#8FCBB2"/>
<path d="M142.29 282.04C140.88 283.17 138.82 284.41 136.55 284.08C135.58 283.94 135.51 283.65 134.38 283.31C131.3 282.41 129.47 283.88 126.21 283.95C123.91 284 123.73 283.29 120.59 282.67C119.18 282.39 112.92 281.3 106.29 284.07C101.88 285.91 100.14 289.06 99.3996 288.54C98.3796 287.83 99.7196 283.27 102.34 279.99C103.42 278.63 104.53 277.72 105.28 277.18C112.73 271.76 123.79 273.88 126.22 275.78C126.36 275.89 126.77 276.23 127.38 276.33C128.89 276.59 130.05 275.13 131.32 274.24C133.54 272.69 136.96 272.27 139.05 273.33C141.5 274.56 142.73 278.11 142.3 282.03L142.29 282.04Z" fill="#476B5E"/>
<path d="M156.1 306C154.88 305.78 154.27 306.17 154.06 306.32C152.64 307.36 152.8 310.51 154 311.55C154.18 311.71 154.52 311.94 154.64 312.38C154.76 312.85 154.56 313.26 154.32 313.78C153.78 314.96 153.5 315.55 153.43 315.82C153.07 317.1 154.67 318.41 155.73 319.71C158.19 322.73 158.31 326.41 158.41 329.28C158.49 331.54 158.58 334.17 156.94 335.22C155.93 335.87 154.32 335.88 153.68 335.09C153 334.26 154.56 333 155.15 330.62C156.04 326.98 154.12 323.46 153.49 322.32C151.91 319.44 150.41 319.16 149.47 316.26C149.04 314.94 149.47 314.37 148.96 312.49C148.42 310.51 147.83 310.08 147.62 308.72C147.47 307.72 147.52 306.21 148.64 304.19" fill="#476B5E"/>
<path d="M150.76 244.77C149.1 247.71 151.87 249.62 153.66 258.38C155.56 267.67 152.87 267.58 154.85 276.36C155.24 278.1 155.87 280.44 154.63 281.89C153.45 283.27 151.59 283.29 148.27 283.71C140.95 284.62 139.82 284.52 138.91 285.6C137.35 287.45 137.72 291.19 139.55 293C141.2 294.63 143.83 294.5 148.36 294.28C152.72 294.06 154.76 293.27 155.51 294.35C156.02 295.07 155.37 295.81 154.88 299.39C154.58 301.55 154.45 302.65 154.83 303.34C156.05 305.54 160.95 306.21 163.03 304.11C163.99 303.15 164.13 301.83 164.31 300.15C164.68 296.69 163.41 294.98 164.43 293.74C165.17 292.86 166.51 292.88 167.33 292.88C167.33 292.88 172.29 292.86 180.32 290.47C184.65 289.18 187.28 286.26 189.46 283.93C195.26 277.77 196.48 270.52 197.57 263.98C198.53 258.26 197.18 260.86 197.6 243.46C197.73 237.95 197.92 235.31 196.07 233.91C192.93 231.54 185.74 234.11 185.12 237.2C184.92 238.2 185.51 238.72 186.14 240.52C186.92 242.72 186.96 244.56 186.78 248.56C186.37 257.43 186.16 261.87 185.12 265.92C183.61 271.81 182.85 274.75 180.14 277.54C175.43 282.38 167.4 284.11 165.46 281.75C164.68 280.81 165.26 279.66 165.59 276.64C165.83 274.44 165.49 271.39 164.8 265.29C163.07 249.84 161.43 252.25 161.53 245.68C161.55 244.29 161.65 242.72 160.61 241.79C158.53 239.94 152.66 241.39 150.76 244.76V244.77Z" fill="#751917"/>
<path d="M64.64 103.6C74.97 106.68 83.66 106.41 91.87 106.15C94.98 106.05 102.44 105.69 111.78 103.77C118.24 102.44 119.02 101.72 133.06 97.8102C143.9 94.7902 149.39 93.2802 152.82 93.2302C161.41 93.1102 171.02 95.6202 172.78 96.0802C177.7 97.3702 182.37 99.0502 187.71 97.1202C189.48 96.4802 190.54 95.7302 192.48 94.4002C203.68 86.6802 201.95 88.6002 207.63 84.3602C212.25 80.9102 216.54 77.3002 224.99 71.2502C228.63 68.6402 230.75 67.0302 231.03 68.2902C231.92 72.3202 232.75 82.8602 234.14 95.0902C235.98 111.34 235.71 106.41 241.41 166.49C243.5 188.5 243.23 188.81 243.76 191.51C243.85 191.98 244.15 193.41 244.11 195.32C244.1 196.08 243.98 199.9 241.54 204.43C238.88 209.36 234.98 212.33 232.11 214.32C221.48 221.69 211.62 225.03 211.62 225.03C192.61 233.42 181.19 235.34 167.51 238.53C167.51 238.53 138.27 245.34 125.49 243.76C123.69 243.54 121.77 242.79 118.58 243.17C116.51 243.42 114.98 243.36 113.49 243.08C112.15 242.83 112.03 241.02 111.36 241.12C110.7 241.22 110.4 242.57 110.34 242.82C109.78 245.18 107.67 247.69 103.45 252.69C99.91 256.89 92.85 261.49 84.43 262.43C83.42 262.54 73.5 263.54 67.93 258.67C67.23 258.06 64.01 255.24 63.91 252.26C63.91 252.15 63.88 251.14 63.87 249.78C63.86 246.94 63.96 246.79 63.74 246.41C62.9 244.96 60.76 246.04 59.03 244.43C58.01 243.48 57.31 241.76 57.67 240.34C58.03 238.92 59.29 238.5 59.12 237.36C59.02 236.68 58.54 236.62 58.01 235.57C58.01 235.57 57.46 234.48 57.41 233.1C57.33 230.75 58.98 229.99 58.77 228.57C58.56 227.16 56.76 226.6 54.94 225.61C50.73 223.32 47.56 219.36 46.51 216.16C45.54 213.21 46.28 210.62 47.12 207.67C48.1 204.22 49.96 200.26 60.44 188.06C65.39 182.3 66.62 182.48 66.34 180.84C64.79 171.64 63.69 163.7 62.94 159.22C58.17 130.62 53.9 103.9 52.42 99.6202C51.66 97.4302 55.83 100.93 64.64 103.56V103.6ZM64.93 201.69C64.58 203.45 64.22 205.2 63.87 206.96C63.87 206.96 66.1 210.6 66.23 210.6C66.36 210.6 69.99 210.09 69.99 210.09L68.46 199.3C67.28 200.1 66.11 200.9 64.93 201.69Z" fill="#E62D27"/>
<path d="M355.07 173.05C355.05 174.45 354.85 175.95 354.85 175.95C354.67 177.36 354.58 178.07 354.32 178.71C353.67 180.34 352.53 180.53 350.82 182.34C349.38 183.86 349.68 184.1 348.21 185.83C347.15 187.09 345.4 189.15 342.62 190.33C340.85 191.08 340.54 190.67 339.21 191.49C337.34 192.63 337.4 193.77 335.87 195.17C333.98 196.9 331.33 196.19 329.01 195.86C326.3 195.46 325.4 195.08 324.15 193.43C316.63 183.54 312.8 178.57 309.26 177.26C308.3 176.9 308.56 177.14 304.51 176C300.01 174.74 297.76 174.11 296.02 173.35C290.38 170.88 287.11 166.33 286.49 165.44C283.14 160.62 283.54 156.94 280.02 155.35C278.48 154.66 277.1 154.77 275.91 154.85C264.11 155.65 248.92 154.71 245.73 154.44C243.83 154.28 242.79 154.05 241.04 154.35C239.24 154.65 237.88 155.3 235.6 155.1C234.74 155.03 234.31 154.99 233.97 154.8C230.37 152.81 233.87 137.92 237.13 137.74C237.84 137.7 238.28 138.39 240.12 138.61C240.99 138.72 241.37 138.62 242.86 138.59C244.14 138.56 244.8 138.61 246.18 138.65C248.43 138.72 252.7 138.78 255.81 138.7C259.24 138.62 261.78 138.36 264.46 138.08C273.83 137.1 278.52 136.61 283.28 134.94C288.69 133.04 293.67 131.21 296.39 126.34C298.64 122.31 298.4 117.88 298.33 116.81C298.03 112.31 296.21 111.12 295.71 105.17C295.49 102.46 295.35 100.59 296.26 98.3699C296.69 97.2999 298.4 93.6099 302.61 92.1899C306.93 90.7399 310.58 92.7899 311.32 93.2299C314.6 95.1799 315.17 99.0199 315.46 100.51C316.65 106.56 314.38 115.11 313.15 118.41C312.96 118.93 312.41 120.33 313.05 121.4C313.74 122.55 315.44 122.69 315.91 122.74C321.16 123.31 331.76 129.91 334.78 132.17C338.54 134.98 336.06 135.16 344.61 149.15C344.61 149.15 355.19 166.46 355.08 173.07L355.07 173.05Z" fill="#E62B27"/>
<path d="M198.32 238.25C198.32 238.25 198.38 240.35 197.96 243.99C197.66 246.56 196.93 249.93 195.12 254.04C193.81 257 188.63 263.58 187.52 263.73C182.58 264.41 181.68 282.43 175.07 281.89C170.51 281.52 171.46 281.17 163.52 282.34C151.9 284.04 151.03 284.21 144.73 284.04C141.86 283.96 137.39 286.41 137.31 288.98C137.24 291.26 140.67 293.35 143.36 294.05C145.43 294.59 146.05 294.05 152.04 293.48C156.3 293.07 156.25 293.4 160.08 292.97C162.64 292.68 162.42 292.57 166.85 292.01C169.21 291.71 170.38 291.6 172.66 291.24C174.76 290.91 176.37 290.6 176.68 290.54C181.46 289.58 187.45 285.65 189.4 284.04C201.26 274.22 198.39 238.25 198.34 238.25H198.32Z" fill="#E62B27"/>
<path d="M198.32 238.25C198.84 247.93 195.68 257.24 188.62 264.01C188.2 264.35 187.89 264.49 187.36 264.62C185.44 265.79 184.87 268.33 183.98 270.5C182.47 274.41 181.62 278.91 178.38 281.93C177.66 282.55 176.63 283.02 175.64 283.08C174.95 283.14 172.38 282.87 171.66 282.82C165.74 282.88 159.66 284.51 153.67 285.14C150.63 285.59 147.46 285.53 144.4 285.49C142.4 285.69 139.36 286.92 138.8 289.02C139.26 291.01 142.5 292.36 144.4 292.73C147.14 292.79 150.37 291.99 153.23 291.89C155.28 291.72 157.28 291.81 159.31 291.58C165.03 290.74 171.64 290.17 177.3 289.03C181.01 287.99 184.62 285.97 187.81 283.78C190.94 281.63 192.87 278.07 194.25 274.35C198.19 262.84 198.57 250.36 198.33 238.24L198.32 238.25ZM198.32 238.25C199.55 251.16 200 269.26 193.51 280.81C192.42 282.66 190.91 284.41 189.18 285.68C185.77 288.16 182.18 290.32 177.97 291.58C174.4 292.49 169.36 293.04 165.7 293.59L162.71 294.06C159.65 294.63 156.51 294.65 153.43 294.83C149.15 294.97 144.66 296.84 140.63 294.65C131.86 290.52 136.45 283.44 144.24 282.6C147.27 282.64 150.31 282.73 153.33 282.34C159.45 281.82 165.61 280.2 171.83 280.33C172.23 280.36 175.15 280.72 175.48 280.69C179.46 280.17 181.44 270.27 183.4 266.93C184.22 265.35 185.29 263.31 187.31 262.94C187.44 262.92 187.39 262.91 187.38 262.91C187.34 262.94 187.38 262.9 187.38 262.91L187.61 262.76C189.9 260.73 191.86 258.16 193.6 255.63C196.84 250.46 198.03 244.32 198.32 238.25Z" fill="#E62B27"/>
<path d="M70.6998 196.82C70.9098 196.15 77.3398 186.58 77.3398 189.67C77.3398 193.29 80.3398 203.33 76.6098 209.88C74.7898 213.07 78.3998 209.28 74.3098 210.65C70.2198 212.02 69.0798 201.88 70.6898 196.82H70.6998Z" fill="#751917"/>
<path d="M231.52 81.7803C236.2 105.41 239.04 130.84 241.44 154.08L243.58 176.39C244.1 183.98 245.21 191.64 243.38 199.25C242.6 203.16 239.89 206.57 237.07 209.23C234.3 211.9 231.26 214.2 228.09 216.27C221.73 220.37 214.87 223.59 207.75 225.91C214.55 222.8 221.08 219.13 227 214.7C231.91 210.88 237.08 206.71 239.74 201.02C242.12 193.26 240.49 184.77 239.77 176.76C239.04 169.63 238.03 160.81 237.52 154.48C235.27 131.03 233.22 105.27 231.53 81.7803H231.52Z" fill="#F29699"/>
<path d="M118.72 310.76C125.98 308.07 134.04 309.13 141.12 312.09C148.43 315.08 153.84 322.98 153.27 330.85C149.94 324.51 145.57 319.41 139.1 316.67C132.56 313.85 125.89 312.07 118.71 310.77L118.72 310.76Z" fill="#CDE6D6"/>
<path d="M167.57 319.95C175.32 313.14 188.66 308.48 198.86 311.22C203.32 312.12 208.07 314.61 210.41 318.74C211.61 320.73 212.35 322.94 212.5 325.16C211.23 323.34 209.88 321.74 208.37 320.42C202.43 315 193.76 314.7 186.16 316C179.85 317.03 173.93 318.37 167.56 319.96L167.57 319.95Z" fill="#CDE6D6"/>
<path d="M136.99 297.21C129.16 299.43 124.59 287.41 131.99 284.02C131.55 286.83 131.62 288.95 132.5 291.36C133.41 293.75 134.9 295.33 137 297.21H136.99Z" fill="#CDE6D6"/>
<path d="M170.84 303.77C174.69 306.34 172.65 310.23 168.98 311.57C164.34 313.39 158.71 313.61 154.33 310.96C158.24 310.72 161.66 310.42 165.41 309.54C168.95 308.68 172.8 308.26 170.84 303.77Z" fill="#CDE6D6"/>
<path d="M158.08 144.06C157.34 146.15 156.19 147.96 156.55 150.57C156.69 151.61 156.95 151.89 157.19 151.97C158 152.25 159.7 150.36 160.64 148.52C161.05 147.72 161.13 147.29 161.42 147.25C162.14 147.17 163.15 149.54 163.57 151.49C164.73 156.78 162.22 161.83 161.02 164.26C160.1 166.12 159.64 167.05 158.81 168.17C157.98 169.3 157.28 169.97 157.45 170.21C157.67 170.52 159.23 169.9 160.34 169.19C163.06 167.43 164.02 164.4 164.94 161.36C166.07 157.62 166.21 154.57 166.3 152.51C166.33 151.8 166.43 149.03 165.96 144.85C165.18 137.93 164.65 133.21 161.19 129.53C160.31 128.6 158.87 127.11 156.59 126.64C152.66 125.83 148.73 128.56 148.93 129.36C149.09 130 151.72 128.88 154.55 130.38C157.68 132.05 158.68 135.66 158.81 136.17C159.69 139.56 158.5 142.89 158.09 144.04L158.08 144.06Z" fill="#F2979A"/>
<path d="M203.16 133.68C202.42 135.77 201.27 137.58 201.63 140.19C201.77 141.23 202.03 141.51 202.27 141.59C203.08 141.87 204.78 139.98 205.72 138.14C206.13 137.34 206.21 136.91 206.5 136.87C207.22 136.79 208.23 139.16 208.65 141.11C209.81 146.4 207.3 151.45 206.1 153.88C205.18 155.74 204.72 156.67 203.89 157.79C203.06 158.92 202.36 159.59 202.53 159.83C202.75 160.14 204.31 159.52 205.42 158.81C208.14 157.05 209.1 154.02 210.02 150.98C211.15 147.24 211.29 144.19 211.38 142.13C211.41 141.42 211.51 138.65 211.04 134.47C210.26 127.55 209.73 122.83 206.27 119.15C205.39 118.22 203.95 116.73 201.67 116.26C197.74 115.45 193.81 118.18 194.01 118.98C194.17 119.62 196.8 118.5 199.63 120C202.76 121.67 203.76 125.28 203.89 125.79C204.77 129.18 203.58 132.51 203.17 133.66L203.16 133.68Z" fill="#F2979A"/>
<path d="M72.0896 212.18C72.2596 212.69 76.9596 211.81 80.8896 210.61C84.8196 209.42 85.3796 208.71 88.1496 208.37C91.7696 207.93 94.5096 208.69 95.0696 208.86C98.1196 209.75 100.09 211.31 101.64 212.56C102.65 213.38 104.88 215.21 106.71 218.18C109.61 222.89 109.68 227.55 109.75 231.58C109.84 237.12 108.62 241.21 108.34 242.14C106.94 246.67 105.76 249.24 106.12 249.49C106.66 249.86 111.46 245.33 112.42 239.42C112.46 239.17 112.49 236.45 112.56 231.01C112.58 228.9 112.59 228.05 112.56 226.92C112.48 223.63 112.19 220.89 112.08 220.18C111.33 215.09 104.55 208.91 96.9296 206.73C89.6996 204.66 83.3796 207.08 78.7196 208.77C75.5296 209.93 71.9296 211.7 72.0896 212.17V212.18Z" fill="#F29699"/>
<path d="M45.7496 53.25C45.1596 56.47 44.5696 62.6 48.0496 67.55C52.2096 73.46 59.9296 74.47 64.1396 74.95C96.1896 78.66 112.22 80.51 128.74 78.52C144.94 76.57 158.69 72.45 186.19 64.22C222.1 53.48 204.01 54.68 216.83 51.01C218.51 50.53 225.55 48.59 226.28 44.56C226.45 43.62 226.18 43.28 226.14 39.46C226.12 38.1 226.14 36.45 226.25 34.48C226.45 30.57 226.77 29.39 226.03 28.73C223.88 26.84 216.52 32.44 210.97 35.88C205.3 39.39 197.4 42.22 181.61 47.88C143.23 61.63 106.8 61.92 106.8 61.92C92.1796 62.04 70.8196 60.64 45.7796 53.24L45.7496 53.25Z" fill="#F29699"/>
<path d="M53.8395 78.8602C54.0095 79.4802 42.8695 81.9202 33.0695 88.0502C26.2595 92.3102 21.6695 96.6702 21.6695 96.6702C20.6895 97.6002 20.0195 98.3102 19.9695 98.2602C19.8195 98.1202 24.9195 90.5202 32.0595 85.4902C42.1395 78.3802 53.6795 78.2402 53.8495 78.8502L53.8395 78.8602Z" fill="#476B5E"/>
<path d="M328.24 128.15C336.54 133.47 340.53 142.9 345.23 151.12C348.81 158.58 357.01 169.87 352.81 178.19C353.27 175.83 353.16 173.46 352.44 171.31C350.24 164.89 345.74 158.61 342.61 152.57C340.35 148.38 338.18 144.09 336.14 139.81C334.11 135.51 331.34 131.77 328.24 128.16V128.15Z" fill="#F29699"/>
<path d="M301.09 93.8899C308.6 89.7799 314.38 94.7999 315.56 102.48C316.49 108.99 314.85 115.68 311.92 121.41C310.01 125.17 307.75 128.82 304.89 131.94C308.27 124.48 311.85 116.92 312.68 108.77C313.64 100.53 311.38 91.4899 301.08 93.8999L301.09 93.8899Z" fill="#F29699"/>
<path d="M190.22 188.51C189.76 188.09 189.05 187.52 188.11 186.99C186.88 186.29 185.82 185.7 184.66 185.88C183.57 186.05 183.71 186.69 182.1 187.52C180.2 188.49 179.34 187.94 178.02 189.01C177.01 189.83 177 190.58 176.62 190.55C175.62 190.45 174.1 185.03 176.38 182.14C177.71 180.46 179.19 181.07 182.19 179.59C187.29 177.08 188.38 172.67 189.72 173.02C190.74 173.28 191.53 176.21 190.23 188.53L190.22 188.51Z" fill="#751917"/>
<path d="M259.29 66.4401C248.57 58.3801 235.52 54.3401 222.14 54.4001C235.41 51.4401 250.37 56.1201 259.29 66.4401Z" fill="#476B5E"/>
<path d="M122.94 8.77027C143.63 4.34027 164.76 2.31027 185.91 1.76027C192.94 1.51027 200.21 1.94027 207.17 2.63027L212.43 3.16027C215.12 3.59027 221.4 3.51027 221.77 7.26027C221.7 10.5603 217.18 12.3003 214.92 13.6003C208.62 16.7203 202.34 19.8803 195.96 22.8803C183.1 29.0203 169.2 32.0603 155.36 34.9003C167 31.0003 178.75 27.4903 189.9 22.3603C193 20.9403 209.79 11.9303 213.17 10.1903C214.83 9.30027 216.7 8.43027 217.93 7.09027C217.98 7.03027 217.98 6.99027 217.93 7.11027C217.91 7.17027 217.89 7.28027 217.89 7.43027C217.89 7.55027 217.96 7.84027 218.03 7.95027C218.19 8.22027 218.25 8.20027 218.2 8.19027C216.32 7.36027 214.23 7.30027 212.02 7.05027C205.19 6.48027 198.01 5.67027 191.2 5.56027C168.39 5.50027 145.69 6.69027 122.92 8.76027L122.94 8.77027Z" fill="#CDE6D6"/>
<path d="M285.15 52.97C275.3 54.22 265.36 54.12 255.48 53.26C250.56 52.72 245.59 52.2 240.73 50.72C235.92 49.29 231.37 47.29 226.97 45C233.02 46.37 238.82 48.12 244.87 49.06C258.25 50.84 271.71 51.46 285.15 52.97Z" fill="#CDE6D6"/>
<path d="M173.39 95.04C177.06 95.49 180.97 96.09 184.61 95.43C189.89 93.64 194.53 90.25 198.78 86.69C205.87 80.29 213.12 73.7 221.39 68.81C231.46 62.07 243.92 60.94 255.35 64.65C247.9 64.05 240.15 64.28 233.15 66.85C227.92 68.78 223.34 72.09 218.75 75.22C214.28 78.33 209.58 82.18 205.31 85.62C199.38 90.52 192.67 95.3 184.89 96.76C180.95 97.11 177.13 96.05 173.38 95.04H173.39Z" fill="#CDE6D6"/>
<path d="M161.64 92.6502C150.01 91.9302 138.49 94.2202 127.76 98.5402C108.69 106.29 86.7298 109.24 66.6498 103.38C58.2298 101.18 50.0298 97.7002 41.5098 96.2602C35.8098 95.2602 29.9898 95.0802 24.2798 96.3802C29.8098 94.3002 35.8598 93.8902 41.7498 94.3402C53.4598 95.3602 64.4898 100.03 75.9498 101.61C87.2798 103.16 98.8398 102.65 110.05 100.23C115.68 99.0802 121.23 97.4902 126.7 95.6502C137.86 91.8602 150.07 90.5102 161.64 92.6402V92.6502Z" fill="#CDE6D6"/>
<path d="M162.97 93.5101C160.31 92.3701 158.04 90.3201 155.75 88.6401C151.91 85.6301 148.49 82.1401 145.93 77.8901C148.8 78.9201 151.27 80.4001 153.73 82.0801C157.98 84.7801 161.49 88.5801 162.97 93.5001V93.5101Z" fill="#CDE6D6"/>
<path d="M190.61 189.58L188.11 186.99L183.8 186.43L182.09 187.51L179.8 188.17L177.08 189.92L178.01 193.24L182.18 197.07L185.67 198.26L188.22 196.13L190.61 189.58Z" fill="#F29699"/>
<path d="M330.72 139.74C332.79 144.38 333.28 150.12 331.29 154.99C330.88 155.78 330.45 156.47 330.37 157.03C330.28 157.57 330.49 158.02 330.93 158.48L330.75 158.34C338.59 163.37 348.62 170.85 350.16 180.61C348.44 175.86 345.15 172.22 341.46 168.92C337.81 165.63 333.89 162.62 329.74 159.99C328.81 159.27 328.3 157.86 328.58 156.7C328.84 155.59 329.41 154.87 329.79 154.18C331.79 149.88 331.82 144.42 330.73 139.75L330.72 139.74Z" fill="#57111A"/>
<path d="M330 155.42C328.99 158.75 327.2 162.6 324.58 164.67C324.61 164.51 324.53 164.46 324.62 164.53C324.69 164.59 324.85 164.67 325.02 164.73C328.16 165.93 330.74 168.27 333.23 170.43C338.51 175.36 345.48 182.46 340.66 190.04C342.81 184.1 339.91 179.79 335.81 175.73C332.3 172.28 328.76 168.51 324.34 166.27C322.5 165.4 322.7 163.91 324.31 162.98C326.78 161.03 328.37 158.13 330 155.42Z" fill="#57111A"/>
<path d="M321.71 172.33C319.35 175.51 315.38 177.7 311.39 177.83C311.31 177.84 311.29 177.87 311.37 177.84C311.49 177.83 311.78 177.58 311.84 177.37C311.89 177.21 311.89 177.07 311.88 176.98C311.85 176.91 311.92 177.01 311.92 177.01C313.43 178.66 315.53 179.97 317.12 181.66C319.13 183.87 320.96 185.8 323.08 187.89C324.41 189.27 325.79 190.6 327.15 191.89C328.53 193.22 329.63 194.05 331.53 193.79C333.29 193.65 335.05 192.8 336.71 191.79C334.9 194.09 331.59 196.19 328.45 195.32C325.51 194.06 323.48 191.91 321.13 189.95C318.18 187.5 315.82 184.35 313.02 181.75C311.74 180.41 307.46 177.32 310.49 175.63C311.28 175.37 312 175.56 312.66 175.53C315.95 175.51 318.97 174.16 321.72 172.33H321.71Z" fill="#57111A"/>
<path d="M123.4 6.96012C86.2597 13.3001 41.6596 28.3201 42.6096 34.5301C43.6096 41.0001 97.6896 46.5101 141.37 39.5201C180.44 33.2701 223.09 13.3601 222.14 6.96012C221.16 0.360116 169.89 -0.969884 123.39 6.96012H123.4Z" stroke="#57111A" stroke-width="3" stroke-miterlimit="10"/>
<path d="M226.12 45C226.18 39.64 226.34 31.51 226.12 25.98C225.89 20.16 224.74 11.21 222.15 6.95996" stroke="#57111A" stroke-width="3" stroke-miterlimit="10"/>
<path d="M47.8896 68.3703C46.0596 62.6903 45.2396 59.2803 44.0596 53.8203C42.9596 48.7503 42.5996 40.8003 42.5996 35.0303" stroke="#57111A" stroke-width="3" stroke-miterlimit="10"/>
<path d="M47.6196 67.51C62.5496 78.07 104.21 82.08 147.66 75.01C182.26 69.38 215.57 54.58 226.98 43.52" stroke="#57111A" stroke-width="3" stroke-miterlimit="10"/>
<path d="M43.6597 50.6902C58.5897 61.2502 100.25 65.2602 143.7 58.1902C178.3 52.5602 214.72 37.0502 226.12 25.9902" stroke="#57111A" stroke-width="3" stroke-miterlimit="10"/>
<path d="M44.5195 59.7303C59.4495 70.2903 101.11 74.3003 144.56 67.2303C179.16 61.6003 215.58 46.0903 226.98 35.0303" stroke="#57111A" stroke-miterlimit="10"/>
<path d="M48.2398 69C45.4798 72.05 41.0698 76.47 34.8898 80.79C25.9798 87.02 21.7998 87.3 14.4198 93.13C5.81976 99.93 0.49976 108.77 1.64976 109.98C3.05976 111.47 12.2698 99.32 28.4998 97.13C30.3998 96.87 34.7798 94.95 50.7098 99.68C69.5598 105.27 78.7298 106.44 79.8198 106.57C97.3598 108.72 112.9 104.18 122.2 101.46C134.46 97.88 136.88 96.4 146.46 94.57C152.46 93.42 160.72 93.32 170.2 95.85C181.69 98.91 183.51 98.23 187.31 97.64C192.13 96.89 195.05 95.03 211.31 82.32C225.24 71.43 227 69.75 231.99 68.02C234.69 67.08 241.6 64.7 250.37 65.47C257.34 66.08 257.67 68 261.86 67.26C268.59 66.06 267.46 61.34 277.18 56.54C282.8 53.76 288.25 53.08 288.16 52.2C288.03 50.9 273.5 51.05 260.59 49.9C246.49 48.64 234.99 45.87 226.97 43.52" stroke="#57111A" stroke-width="3" stroke-miterlimit="10"/>
<path d="M67.0097 181.48C61.5297 154.31 57.5997 126.86 52.9697 99.5303" stroke="#57111A" stroke-width="3" stroke-miterlimit="10"/>
<path d="M231.7 68.8901C236.78 110.9 240.78 152.88 244.78 195.86C244.78 195.89 244.78 195.93 244.78 195.97C244.75 203.95 238.77 210.93 232.78 214.92C201.78 233.92 167.87 242.31 132.78 243.92C125.9 244.24 118.61 243.57 112.26 243.15C111.74 243.12 111.38 242.63 111.5 242.12C114.13 230.62 113.81 217.22 105.06 210.41C100.06 206.41 95.1899 204.71 88.7799 204.92C82.9799 205.11 78.2299 209.49 72.5899 209.89C72.1399 209.92 71.7499 209.57 71.7099 209.12C71.3599 204.88 70.7499 199.83 69.8599 196.58" stroke="#57111A" stroke-width="3" stroke-miterlimit="10"/>
<path d="M84.2098 167C74.9398 175.28 66.2398 184.02 58.6998 193.84C56.1998 197.08 53.7498 200.4 51.6798 203.85C49.6298 207.26 47.8698 210.98 48.1898 214.6C48.4798 218.52 51.2798 221.36 54.2798 223.77C60.5598 229.13 67.9998 232.7 76.0398 234.65C67.6998 233.95 59.5098 230.72 52.8598 225.62C43.5798 219.41 43.5698 211.23 49.1098 202.3C58.1498 188.14 70.2898 176.21 84.2098 166.98V167Z" fill="#57111A"/>
<path d="M88.74 176.61C84.11 181.28 80.5 186.66 76.17 191.57C73.09 195.71 63.9 202.92 65.67 208.22C66.34 210.31 67.6 210.77 69.65 210.13C74.06 208.81 78.75 206.6 83.29 205.15C86.39 204.09 89.87 203.05 93.19 203.83C94.85 204.21 96.37 204.97 97.65 206C96.2 205.24 94.63 204.78 93.07 204.65C89.85 204.4 86.9199 205.68 84.0199 206.98C79.5599 208.88 75.05 211.3 70.44 212.86C65.7 214.63 62.26 210.81 62.46 206.19C62.61 204.16 63.47 202.44 64.42 200.97C67.24 196.78 71.11 193.59 74.46 189.97C78.96 185.31 83.28 180.2 88.76 176.6L88.74 176.61Z" fill="#57111A"/>
<path d="M59.4397 229.2C58.0997 231.74 58.6097 234.34 58.7497 234.91C59.4597 237.95 65.2397 240.22 71.1297 238.61" stroke="#57111A" stroke-width="3" stroke-miterlimit="10"/>
<path d="M60.1595 237C58.7695 239.77 58.6395 242.83 60.1495 244.85C61.7995 247.06 64.7795 247.15 67.3795 247.23C71.0295 247.34 73.8895 246.21 75.4695 245.44" stroke="#57111A" stroke-width="3" stroke-miterlimit="10"/>
<path d="M64.8397 247.74C64.6197 249.12 64.1397 252.51 64.9997 254.72C68.0197 262.47 80.0097 263.18 81.0897 263.23C88.6597 263.58 94.7297 260.29 98.6397 257.83C106.06 253.16 109.79 247.25 111.44 242.46" stroke="#57111A" stroke-width="3" stroke-miterlimit="10"/>
<path d="M70.8696 233.43C71.6896 240.31 74.8596 243.87 81.4096 245.81C83.3296 246.38 85.3496 246.71 87.5496 246.96C86.5596 247.47 85.4796 247.77 84.3796 247.98C75.7996 249.5 67.0796 242.33 70.8696 233.42V233.43Z" fill="#57111A"/>
<path d="M237.99 138.6C250.67 137.94 263.47 137.37 275.92 134.91C283.81 133.24 291.03 131.5 295.3 124.5C295.95 123.31 296.28 121.97 296.42 120.48C296.65 117.54 296.76 114.31 296.11 111.43C295.69 109.12 294.44 106.94 293.9 104.6C292.93 100.14 294.83 95.3 298.32 92.51C302.46 88.86 309.22 88.87 313.14 92.83C317.33 97.22 316.83 104.29 316.39 109.8C315.74 115.49 312.92 120.71 309.91 125.44C308.19 128.15 306.2 130.69 303.99 133C308.71 126.73 312.76 119.64 314.28 111.91C314.91 106.94 315.17 98.33 311.44 94.7C308.28 91.71 303.37 91.78 300.14 94.7C296.85 97.45 295.6 102.1 297.45 106.01C298.79 109.02 299.6 112.54 299.54 115.85C299.48 119.27 299.56 122.75 297.82 125.91C295.03 130.31 290.73 133.52 285.83 135.03C270.29 139.53 253.88 139.17 237.98 138.6H237.99Z" fill="#57111A"/>
<path d="M239.47 154.26C252.99 153.87 266.5 151.52 280.01 153.47L280.7 153.57L281.06 154.19C284.25 159.66 287.31 165.09 292.21 169.05C300.38 175.73 312.1 176.29 321.72 172.32C314.28 176.9 304.57 177.92 296.37 174.55C287.93 171.27 282.6 163.2 278.52 155.63L279.57 156.35C276.32 155.85 273.02 155.56 269.7 155.38C259.66 154.89 249.49 155.53 239.47 154.24V154.26Z" fill="#57111A"/>
<path d="M315.63 167.91C322.92 162.84 328.18 155.37 329.4 146.55C329.82 143.67 329.92 140.7 329.76 137.61C335.48 149.25 328.39 165 315.63 167.91Z" fill="#57111A"/>
<path d="M308.21 175.63C309.51 178.29 324.42 194.79 328.5 196.27C330.15 196.87 333.56 197.07 337.26 193.43C337.26 193.43 339.78 190.97 340.32 187.13C341.27 180.36 331.01 171.91 320.84 164.76" stroke="#57111A" stroke-width="3" stroke-miterlimit="10"/>
<path d="M326.59 158.58C327.51 158.95 343.25 169.71 348.36 179.51C349.23 181.19 348.79 185.69 345.98 188.39C343.78 190.51 339.28 189.91 339.38 190.29" stroke="#57111A" stroke-width="3" stroke-miterlimit="10"/>
<path d="M311.78 121.25C317.3 121.72 326.8 123.82 332.85 129.94C337.55 134.7 336.87 135.32 344.15 148.34C345.77 151.24 351.34 159.7 354.36 169.91C355.06 172.28 355.87 175.75 354.23 178.76C353 181.01 350.61 181.99 349.21 182.42" stroke="#57111A" stroke-width="3" stroke-miterlimit="10"/>
<path d="M203.36 126.58C203.32 122.54 199.85 117.43 196.51 118.12C191.63 119.13 188.91 131.95 191.23 142.29C192.77 149.14 197.17 157.72 201.19 157.35C204.52 157.05 206.7 150.57 207.32 147.14C208.23 142.02 207.44 137.41 207.04 137.05C206.86 136.89 206.38 138 205.27 139.99C204.29 141.75 203.02 141.78 201.99 141.33C200.57 140.71 200.09 137.52 201.44 133.61C202.93 129.28 203.38 129.1 203.35 126.59L203.36 126.58Z" fill="#57111A" stroke="#57111A" stroke-width="3" stroke-miterlimit="10"/>
<path d="M157.74 138.06C157.7 134.02 154.23 128.91 150.89 129.6C146.01 130.61 143.29 143.43 145.61 153.77C147.15 160.62 151.55 169.2 155.57 168.83C158.9 168.53 161.08 162.05 161.7 158.62C162.61 153.5 161.82 148.89 161.42 148.53C161.24 148.37 160.76 149.48 159.65 151.47C158.67 153.23 157.4 153.26 156.37 152.81C154.95 152.19 154.47 149 155.82 145.09C157.31 140.76 157.76 140.58 157.73 138.07L157.74 138.06Z" fill="#57111A" stroke="#57111A" stroke-width="3" stroke-miterlimit="10"/>
<path d="M3.35986 109.48C14.9999 101.88 22.4999 101.91 27.1899 103.35C32.3199 104.92 35.4699 108.59 43.0199 109.73C47.8599 110.46 51.9699 109.77 54.5799 109.12" stroke="#57111A" stroke-width="2" stroke-miterlimit="10"/>
<path d="M288.55 52.3203C286.81 57.4303 283.82 59.3203 281.74 59.8103C279.62 60.3103 278.11 59.6903 275.1 60.4503C272.51 61.1003 270.13 62.3303 268.91 63.2603" stroke="#57111A" stroke-width="2" stroke-miterlimit="10"/>
<path d="M194.61 166.22C193.12 169.07 191.21 171.71 189.06 174.14C186.85 176.58 184.34 179 181.22 180.23C179.67 181 177.62 181.27 176.51 182.5C174.35 187.23 177.91 193.1 182.11 195.87C183.33 196.77 184.59 197.42 185.43 197.29C187.75 196.78 188.54 192.93 189.1 190.69C190.34 184.49 190.75 178.16 189.9 171.84C192.52 177.66 194.27 204.06 182.74 199.62C176.13 196.55 170.43 188.21 174.25 181.06C175.74 179.07 178.3 178.83 180.38 178.06C186.22 175.86 190.58 170.86 194.62 166.23L194.61 166.22Z" fill="#57111A"/>
<path d="M179.51 174.81C176.4 180.56 173.96 186.04 171.68 192.17C169.65 185.6 173.25 177.64 179.51 174.81Z" fill="#57111A"/>
<path d="M176.61 190.54C178.26 184.55 186.33 187.31 186.25 192.65C185.48 191.83 184.8 191.11 184.04 190.54C181.75 188.64 178.96 188.59 176.62 190.54H176.61Z" fill="#57111A"/>
<path d="M181.4 188.49C181.54 186.66 183.17 185.04 185.02 184.82C187.47 184.7 189.61 186.75 189.94 189.05C188.57 188.1 187.11 187.14 185.61 186.83C184.01 186.72 182.81 187.59 181.41 188.5L181.4 188.49Z" fill="#57111A"/>
<path d="M150.14 243C151.88 248.94 153.5 256.29 154.23 264.79C154.76 270.98 154.72 276.6 154.4 281.47" stroke="#57111A" stroke-width="3" stroke-miterlimit="10"/>
<path d="M160.4 242C162.14 247.94 163.76 255.29 164.49 263.79C165.02 269.98 164.98 275.6 164.66 280.47" stroke="#57111A" stroke-width="3" stroke-miterlimit="10"/>
<path d="M184.65 235.32C187.06 247.25 187.23 257.28 185.55 263.77C182.99 273.65 180.76 276.04 179.42 277.22C175.68 280.51 169.72 281.12 157.8 282.33C148.13 283.31 143.29 283.8 141.95 283.58C141.78 283.55 141 283.42 140.1 283.69C138.05 284.32 136.06 286.84 136.36 289.65C136.58 291.7 137.95 293.32 139.42 294.08C140.36 294.56 141.17 294.6 143.33 294.59C147.3 294.57 149.28 294.52 150.14 294.42C158.47 293.45 161.11 293.94 167.33 292.89C175.97 291.42 182.72 290.28 187.93 285.57C190.29 283.44 194.17 279.46 197.08 264.98C198.69 257 198.37 245.44 195.54 232.06" stroke="#57111A" stroke-width="3" stroke-miterlimit="10"/>
<path d="M153.72 300.41C152.14 300.95 150.49 301.69 150.53 302.45C150.6 303.77 155.71 304.74 159.85 304.75C165.48 304.75 171.3 302.98 171.21 301.81C171.17 301.31 170.03 300.72 165.21 300.28" stroke="#57111A" stroke-width="3" stroke-miterlimit="10"/>
<path d="M164.7 293.9C164.66 297.22 164.61 300.54 164.57 303.86" stroke="#57111A" stroke-width="3" stroke-miterlimit="10"/>
<path d="M154.7 295.3C154.66 298.62 154.61 301.94 154.57 305.26" stroke="#57111A" stroke-width="3" stroke-miterlimit="10"/>
<path d="M143.38 283.05C143.88 278.9 142.14 275.07 139.04 273.35C135.46 271.36 131.63 273.05 131 273.35C124.7 276.28 124.21 285.23 124.11 287.01C124.04 288.25 123.49 298.23 129.6 301.44C130.08 301.69 133.58 303.45 137.13 301.7C140.5 300.03 141.1 295.11 141.22 294.6" stroke="#57111A" stroke-width="3" stroke-miterlimit="10"/>
<path d="M150.53 302.45C150.17 302.73 148.11 304.38 148.1 306.92C148.1 308.54 148.95 309.71 149.25 310.11C151.74 313.44 157.29 313.21 161.25 313.05C164.04 312.94 171.6 312.62 173.27 308.87C173.64 308.04 173.69 307.12 173.69 307.03C173.81 304.29 171.76 302.32 171.21 301.82" stroke="#57111A" stroke-width="3" stroke-miterlimit="10"/>
<path d="M129.34 274.34C126.52 274.66 114.46 274.22 105.97 275.77C98.2797 277.18 97.4197 291.64 97.5397 299.62C97.7997 315.59 97.8597 323.94 98.6897 333.09C98.7297 333.54 98.7097 334.3 99.2597 335.3C100.66 337.81 111.07 337.94 120.13 337.79C143.04 337.41 146.61 339.07 151.65 335.52C156.41 332.17 153.56 323.52 152.2 321.35" stroke="#57111A" stroke-width="3" stroke-miterlimit="10"/>
<path d="M115.93 310.92C126.54 306.23 141.69 307.74 150.05 316.25C154.13 320.23 157.06 326.39 155.25 332.13C153.16 337.83 147.05 338.94 140.77 338.52C138.99 338.39 137.24 338.12 135.52 337.73C138.99 337.77 142.5 337.59 145.85 336.79C148.99 336.1 151.71 334.66 152.74 331.55C152.8 331.37 152.86 331.18 152.97 331.03L152.82 331.33C153.33 329.59 153.05 327.48 152.57 325.77C151.79 322.94 149.98 320.45 147.9 318.34C140.21 310.46 126.36 308.67 115.92 310.93L115.93 310.92Z" fill="#57111A"/>
<path d="M129.63 301.9C129.74 303.2 129.86 307.89 129.97 309.19" stroke="#57111A" stroke-width="3" stroke-miterlimit="10"/>
<path d="M139.17 279.74C131.34 282.34 131.07 293.09 137.47 297.44C135.5 297.02 133.67 295.72 132.52 293.92C128.89 288.41 131.9 279.44 139.18 279.74H139.17Z" fill="#57111A"/>
<path d="M108.14 275.82C106.01 276.8 103.8 281.95 103.8 285.56C103.8 294.82 103.75 298.32 103.71 312.27C103.68 323.86 102.26 331.75 105.67 332.28C109.08 332.81 124.65 332.37 127.12 332.37C135.57 332.37 137.6 332.17 154.13 331.38" stroke="#57111A" stroke-width="2" stroke-miterlimit="10"/>
<path d="M149.25 310.11C149.11 312.57 148.97 315.03 148.84 317.49" stroke="#57111A" stroke-width="3" stroke-miterlimit="10"/>
<path d="M154.61 334.93C159.67 333.84 164.87 333.37 170.06 333.27C176.51 333.11 182.91 333.79 189.34 333.31C195.69 332.96 204.27 332.77 210.63 332.68C213.06 332.21 212.12 324.36 211.61 322.47C207.56 309.22 190.67 310.62 179.91 313.8C175.02 315.18 170.38 317.48 166.1 320.38C169.97 316.95 174.53 314.23 179.45 312.4C186.83 309.82 195.13 308.09 202.91 310.35C211.78 312.96 216 320.99 215.11 329.93C214.96 332.36 213.67 335.64 210.72 335.65L208.76 335.67L201.02 335.71C196.4 335.68 190.11 335.9 185.51 335.84C175.1 335.27 165.01 333.89 154.61 334.94V334.93Z" fill="#57111A"/>
<path d="M152.83 334.42C171.38 334.21 190.92 334.59 209.51 334.24" stroke="#57111A" stroke-width="3" stroke-miterlimit="10"/>
<path d="M172.42 310.39C172.42 312.57 171.74 313.8 172.42 316.24" stroke="#57111A" stroke-width="3" stroke-miterlimit="10"/>
<path d="M213.71 324.74C212.71 325.61 210.98 327.12 208.7 328.06C204.71 329.7 201.3 330.19 198.74 330.19C193.01 330.17 177.72 330.19 155.51 330.19" stroke="#57111A" stroke-width="2" stroke-miterlimit="10"/>
<path d="M136.44 185.33C134.07 183.98 128.2 181.41 129.84 186.64C131.33 191.37 141.61 190.61 145.63 190.09C141.21 191.51 130.7 192.63 128.95 186.92C127.42 180.68 133.61 182.85 136.44 185.33Z" fill="#57111A"/>
<path d="M220.1 180.4C219.48 178.19 220.19 175.58 222.12 174.21C223.05 173.38 224.83 172.91 225.68 174.15C228.62 179.5 223.31 185.69 219.16 188.66C222.39 185.29 227.23 179.53 224.92 174.72C224.34 173.88 223.29 174.37 222.56 174.83C220.73 175.93 219.91 178.18 220.1 180.4Z" fill="#57111A"/>
<path d="M210.19 209.76C211.18 208.63 213.8 207.52 214.52 209.5C214.88 211.27 214.11 212.8 213.18 214.21C211.96 216.28 206.96 217.22 207.43 213.7C207.61 212.88 208.06 212.17 208.66 211.67C208.23 212.31 207.92 213.03 207.92 213.75C207.81 215.51 209.68 215.39 210.82 214.89C212.61 214.05 213.85 211.62 213.77 209.71C213.29 208.28 211.14 209.22 210.19 209.76Z" fill="#57111A"/>
<path d="M223.28 120.98C222.25 122.07 219.59 123.07 218.95 121.06C218.67 119.27 219.49 117.78 220.48 116.41C221.78 114.39 226.82 113.66 226.2 117.15C225.99 117.97 225.51 118.65 224.89 119.12C225.34 118.49 225.69 117.79 225.72 117.07C225.9 115.32 224.03 115.36 222.87 115.82C221.05 116.59 219.71 118.96 219.71 120.88C220.13 122.33 222.32 121.48 223.29 120.97L223.28 120.98Z" fill="#57111A"/>
<path d="M78.5499 145.96C77.2899 145.14 75.8199 142.71 77.6899 141.71C79.3999 141.11 81.0099 141.65 82.5399 142.38C84.7699 143.3 86.3899 148.12 82.8399 148.14C81.9999 148.08 81.2399 147.73 80.6599 147.21C81.3599 147.54 82.1099 147.76 82.8199 147.65C84.5699 147.51 84.1999 145.68 83.5399 144.62C82.4499 142.96 79.8799 142.08 77.9899 142.42C76.6399 143.1 77.8699 145.1 78.5399 145.96H78.5499Z" fill="#57111A"/>
<path d="M141.39 134.72C139.3 126.64 148.95 120.38 155.57 125.28C153.84 124.98 152.19 124.9 150.61 125.14C145.62 125.79 142.23 129.86 141.38 134.72H141.39Z" fill="#57111A"/>
<path d="M187.94 125C184.23 117.52 192.38 109.41 199.88 112.84C198.12 112.9 196.5 113.16 195 113.72C190.25 115.38 187.77 120.07 187.94 125Z" fill="#57111A"/>
<path d="M164.31 94.5803C158.45 88.5303 152.41 82.9603 145.93 77.5903C153.89 80.5803 160.7 86.8903 164.31 94.5803Z" fill="#57111A"/>
<path d="M259.29 66.4403C247.26 60.8103 234.72 56.8103 221.67 54.3603C235.03 54.0303 248.63 58.3803 259.29 66.4403Z" fill="#57111A"/>
<path d="M19.3799 98.9901C28.0499 88.6301 40.5499 81.3201 53.8399 78.8701C41.4399 84.0001 29.9299 90.7001 19.3799 98.9901Z" fill="#57111A"/>
<path d="M215.3 6.90039C216.43 7.07039 216.71 7.60039 216.75 7.90039C216.82 8.51039 216.35 9.01039 215.84 9.37039" stroke="#CDE6D6" stroke-miterlimit="10"/>
</svg>
