<svg width="192" height="192" viewBox="0 0 192 192" fill="none" xmlns="http://www.w3.org/2000/svg">
<g clip-path="url(#clip0_3_98)">
<path d="M83.6894 186.927C116.719 186.927 143.494 185.55 143.494 183.851C143.494 182.152 116.719 180.774 83.6894 180.774C50.6598 180.774 23.8842 182.152 23.8842 183.851C23.8842 185.55 50.6598 186.927 83.6894 186.927Z" fill="#751917"/>
<path d="M119.906 7.38833C113.694 5.08648 97.194 1.87573 65.3069 7.98531C39.2982 12.9709 32.9681 16.585 25.8958 19.8549C20.2971 22.4472 24.0834 33.2626 25.0837 40.8889C25.3741 43.0831 22.1472 44.5621 21.561 45.1215C19.1677 47.4072 17.6296 47.9073 11.9395 51.5268C9.18051 53.2801 7.8037 54.1621 6.90555 54.9366C2.9526 58.3624 0.527052 62.7402 1.02722 63.1812C1.3284 63.4447 2.57075 62.1647 4.8242 60.6642C5.37277 60.2985 9.61076 57.5826 14.435 56.5446C18.7644 55.6142 22.0935 56.3887 27.4124 57.6418C38.7819 60.3254 44.4666 61.6699 46.5694 61.8958C61.3324 63.4931 70.5129 52.9897 85.362 54.5063C88.9654 54.872 87.6101 55.1517 97.2424 56.6791C100.491 57.1954 101.534 56.4048 102.335 56.2004C108.407 54.6623 109.644 50.6394 117.292 45.143C121.417 42.1796 123.488 40.6952 126.881 39.9907C126.881 39.9907 130.275 39.2862 139.568 40.2596C139.568 40.2596 141.612 40.0122 142.629 39.6519C144.549 38.9742 144.925 37.1672 146.13 35.6667C149.125 31.9342 155.149 32.7141 155.122 32.0956C155.084 31.1329 140.908 30.7241 140.908 30.7241C129.323 30.3853 126.193 28.503 122.783 27.7016C121.67 27.4435 122.02 26.0075 121.686 22.345C120.428 8.59841 120.675 7.66262 119.906 7.37757V7.38833Z" fill="#8FCBB3"/>
<path d="M102.169 105.808C102.056 105.459 101.728 104.426 101.05 104.27C100.749 104.2 100.109 104.238 99.5388 104.41C99.1032 104.346 98.7966 104.41 98.6084 104.475C97.9093 104.706 97.8877 105.195 97.0649 105.513C96.8659 105.588 96.7099 105.642 96.5808 105.679C96.3872 105.733 96.2528 105.765 96.2044 105.776C95.9946 105.825 95.6773 105.954 95.2309 106.303C95.1772 106.384 95.1126 106.497 95.0588 106.647C94.634 107.89 96.0108 109.616 97.3607 110.45C97.92 110.799 99.4259 111.735 100.776 111.144C102.61 110.331 102.669 107.4 102.169 105.814V105.808Z" fill="#F29699"/>
<path d="M7.95412 59.5079C8.02941 59.7392 10.1645 58.997 13.1709 59.4703C13.2946 59.4918 13.4882 59.5133 13.7356 59.5724C14.4402 59.7392 15.2146 60.0941 17.7639 61.1966C19.5763 61.9819 20.7703 62.8047 22.5289 63.1059C23.8681 63.3371 24.9061 63.2457 26.2667 63.122C28.1329 62.9553 28.4664 62.6649 28.6008 62.525C29.4506 61.643 29.2355 59.7123 28.3266 58.5882C27.5521 57.6311 26.4334 57.459 23.9326 57.1686C19.3504 56.6416 17.054 56.378 16.2365 56.4533C11.423 56.9051 7.85731 59.1906 7.95412 59.5025V59.5079Z" fill="#476B5E"/>
<path d="M155.074 32.9883C155.364 33.4616 154.202 34.6771 153.783 35.0697C152.61 36.1615 151.271 36.3873 150.486 36.5057C149.104 36.7154 146.899 36.6509 146.786 36.0808C146.56 34.9621 154.417 31.9181 155.074 32.983V32.9883Z" fill="#476B5E"/>
<path d="M76.0686 162.65C75.676 161.859 74.595 162.241 73.9227 161.279C73.1213 160.128 73.5301 157.944 74.6918 157.207C75.6706 156.589 76.6118 157.363 77.2249 156.756C77.9724 156.013 77.3701 154.072 76.5687 152.91C76.4934 152.797 74.8692 150.517 72.8363 150.721C71.3412 150.872 70.8787 152.238 69.1415 152.249C68.3456 152.254 67.8077 151.856 67.4797 151.845C64.8014 151.765 59.3802 152.168 55.4649 152.921C53.3835 153.324 53.405 157.035 52.6305 162.672C51.2322 172.858 53.5233 174.143 53.0662 181.565C53.0339 182.092 52.9479 183.291 53.6793 184.227C54.9271 185.825 57.643 185.518 59.6545 185.394C70.0666 184.754 72.7019 185.943 79.1879 185.674C81.0487 185.599 81.0595 184.066 82.8666 184.071C87.1906 184.077 90.7348 184.636 92.8215 184.507C98.4524 184.163 110.053 184.937 113.764 184.077C115.991 183.56 115.071 179.021 114.872 178.193C113.898 174.084 110.005 172.202 109.359 171.901C104.272 169.55 98.4148 172.089 97.834 172.347C95.6235 173.342 94.0746 173.681 92.9614 174.202C92.2514 174.53 92.7624 172.153 92.8161 171.96C93.1388 170.717 93.7735 170.615 93.994 169.669C94.3005 168.346 93.4615 166.764 92.2783 165.963C91.2941 165.296 89.7345 164.947 89.1913 165.549C88.7287 166.054 89.3419 166.845 88.8471 167.469C88.6481 167.716 88.2824 167.931 86.3086 167.883C84.1035 167.824 83.0064 167.797 82.7375 167.195C82.4094 166.463 83.5388 165.49 83.313 165.275C83.0871 165.054 81.6726 165.845 80.7422 167.125C80.3926 167.609 79.6128 168.674 79.7795 169.937C79.8763 170.68 80.199 170.723 80.4679 171.723C80.6938 172.567 80.8551 174.03 80.3281 174.331C79.8333 174.611 79.1072 173.665 77.8541 172.89C74.4175 170.76 72.078 170.497 70.0935 170.626C69.6686 170.653 70.1257 170.249 69.8192 168.362C69.6202 167.141 69.475 166.791 69.6793 166.576C70.1419 166.097 71.3143 167.297 72.7664 167.125C74.8531 166.883 76.7086 163.919 76.074 162.639L76.0686 162.65Z" fill="#8FCBB2"/>
<path d="M76.5257 155.685C75.7674 156.293 74.6595 156.96 73.4387 156.783C72.917 156.707 72.8793 156.551 72.2716 156.368C70.6151 155.884 69.6309 156.675 67.8776 156.713C66.6407 156.74 66.5439 156.358 64.8551 156.024C64.0968 155.874 60.7301 155.287 57.1644 156.777C54.7926 157.767 53.8568 159.461 53.4586 159.181C52.91 158.799 53.6307 156.347 55.04 154.583C55.6208 153.851 56.2178 153.362 56.6212 153.072C60.6279 150.157 66.5761 151.297 67.883 152.319C67.9583 152.378 68.1788 152.561 68.5069 152.614C69.319 152.754 69.9429 151.969 70.6259 151.49C71.8198 150.657 73.6592 150.431 74.7832 151.001C76.1008 151.663 76.7624 153.572 76.5311 155.68L76.5257 155.685Z" fill="#476B5E"/>
<path d="M83.9529 168.571C83.2968 168.453 82.9687 168.663 82.8558 168.744C82.0921 169.303 82.1782 170.997 82.8235 171.556C82.9203 171.642 83.1032 171.766 83.1677 172.003C83.2323 172.255 83.1247 172.476 82.9956 172.756C82.7052 173.39 82.5546 173.708 82.517 173.853C82.3234 174.541 83.1839 175.246 83.7539 175.945C85.077 177.569 85.1415 179.548 85.1953 181.092C85.2383 182.307 85.2867 183.722 84.4047 184.286C83.8615 184.636 82.9956 184.641 82.6514 184.216C82.2857 183.77 83.1247 183.092 83.442 181.812C83.9207 179.855 82.8881 177.962 82.5492 177.349C81.6995 175.8 80.8928 175.649 80.3872 174.089C80.156 173.38 80.3872 173.073 80.1129 172.062C79.8225 170.997 79.5052 170.766 79.3923 170.034C79.3116 169.496 79.3385 168.684 79.9408 167.598" fill="#476B5E"/>
<path d="M81.081 135.641C80.1882 137.222 81.678 138.249 82.6407 142.961C83.6625 147.957 82.2158 147.909 83.2807 152.631C83.4904 153.566 83.8293 154.825 83.1624 155.605C82.5277 156.347 81.5274 156.358 79.7419 156.584C75.8051 157.073 75.1973 157.019 74.7079 157.6C73.8689 158.595 74.0679 160.606 75.0521 161.58C75.9395 162.456 77.354 162.387 79.7903 162.268C82.1351 162.15 83.2323 161.725 83.6356 162.306C83.9099 162.693 83.5603 163.091 83.2968 165.016C83.1355 166.178 83.0656 166.77 83.2699 167.141C83.9261 168.324 86.5614 168.684 87.68 167.555C88.1963 167.039 88.2716 166.329 88.3684 165.425C88.5674 163.564 87.8844 162.645 88.4329 161.978C88.8309 161.505 89.5516 161.515 89.9926 161.515C89.9926 161.515 92.6602 161.505 96.9788 160.219C99.3076 159.525 100.722 157.955 101.894 156.702C105.014 153.389 105.67 149.49 106.256 145.972C106.772 142.896 106.046 144.294 106.272 134.936C106.342 131.973 106.444 130.553 105.449 129.8C103.761 128.526 99.8938 129.908 99.5603 131.57C99.4528 132.108 99.7701 132.387 100.109 133.355C100.528 134.538 100.55 135.528 100.453 137.679C100.233 142.45 100.12 144.838 99.5603 147.016C98.7482 150.184 98.3395 151.765 96.882 153.265C94.3489 155.868 90.0303 156.799 88.9869 155.529C88.5674 155.024 88.8793 154.405 89.0568 152.781C89.1859 151.598 89.003 149.958 88.6319 146.677C87.7015 138.368 86.8195 139.664 86.8733 136.13C86.884 135.383 86.9378 134.538 86.3785 134.038C85.2598 133.043 82.1029 133.823 81.081 135.636V135.641Z" fill="#751917"/>
<path d="M34.7644 59.7176C40.32 61.3741 44.9936 61.2289 49.4091 61.0891C51.0817 61.0353 55.0938 60.8417 60.117 59.8091C63.5913 59.0938 64.0108 58.7066 71.5617 56.6038C77.3916 54.9796 80.3442 54.1675 82.1889 54.1406C86.8087 54.0761 91.9771 55.426 92.9237 55.6734C95.5698 56.3672 98.0813 57.2707 100.953 56.2327C101.905 55.8885 102.475 55.4851 103.519 54.7699C109.542 50.6179 108.612 51.6505 111.667 49.3702C114.151 47.5147 116.458 45.5732 121.003 42.3194C122.961 40.9157 124.101 40.0499 124.251 40.7275C124.73 42.8949 125.176 48.5635 125.924 55.1409C126.914 63.8803 126.768 61.2289 129.834 93.5408C130.958 105.378 130.813 105.545 131.098 106.997C131.146 107.25 131.308 108.019 131.286 109.046C131.281 109.455 131.216 111.509 129.904 113.946C128.473 116.597 126.376 118.194 124.832 119.265C119.115 123.228 113.812 125.025 113.812 125.025C103.589 129.537 97.4467 130.569 90.0894 132.285C90.0894 132.285 74.3637 135.948 67.4904 135.098C66.5224 134.979 65.4898 134.576 63.7741 134.781C62.6608 134.915 61.838 134.883 61.0366 134.732C60.316 134.598 60.2514 133.624 59.8911 133.678C59.5361 133.732 59.3748 134.458 59.3425 134.592C59.0413 135.862 57.9066 137.211 55.637 139.901C53.7331 142.159 49.9361 144.633 45.4077 145.139C44.8645 145.198 39.5294 145.736 36.5338 143.117C36.1573 142.789 34.4255 141.272 34.3718 139.669C34.3718 139.61 34.3556 139.067 34.3503 138.335C34.3449 136.808 34.3987 136.727 34.2803 136.523C33.8286 135.743 32.6776 136.324 31.7472 135.458C31.1987 134.947 30.8222 134.022 31.0158 133.258C31.2094 132.495 31.8871 132.269 31.7956 131.656C31.7418 131.29 31.4837 131.258 31.1987 130.693C31.1987 130.693 30.9029 130.107 30.876 129.365C30.8329 128.101 31.7203 127.692 31.6074 126.928C31.4945 126.17 30.5264 125.869 29.5476 125.336C27.2834 124.105 25.5785 121.975 25.0138 120.254C24.4921 118.668 24.8901 117.275 25.3418 115.688C25.8689 113.833 26.8692 111.703 32.5055 105.142C35.1677 102.044 35.8292 102.141 35.6787 101.258C34.845 96.3106 34.2534 92.0403 33.8501 89.6309C31.2847 74.2494 28.9882 59.879 28.1923 57.5773C27.7835 56.3994 30.0262 58.2817 34.7644 59.6961V59.7176ZM34.9203 112.472C34.7321 113.418 34.5385 114.36 34.3503 115.306C34.3503 115.306 35.5496 117.264 35.6195 117.264C35.6894 117.264 37.6417 116.99 37.6417 116.99L36.8188 111.187C36.1842 111.617 35.555 112.047 34.9203 112.472Z" fill="#E62D27"/>
<path d="M190.962 97.0689C190.951 97.8218 190.844 98.6286 190.844 98.6286C190.747 99.3869 190.698 99.7687 190.559 100.113C190.209 100.99 189.596 101.092 188.676 102.065C187.902 102.883 188.063 103.012 187.273 103.942C186.703 104.62 185.761 105.728 184.266 106.362C183.314 106.766 183.148 106.545 182.432 106.986C181.427 107.599 181.459 108.212 180.636 108.965C179.619 109.896 178.194 109.514 176.947 109.336C175.489 109.121 175.005 108.917 174.333 108.03C170.288 102.711 168.229 100.038 166.325 99.3331C165.808 99.1395 165.948 99.2686 163.77 98.6555C161.35 97.9778 160.14 97.639 159.204 97.2303C156.171 95.9019 154.412 93.4548 154.079 92.9761C152.277 90.3839 152.492 88.4047 150.599 87.5496C149.771 87.1785 149.029 87.2377 148.389 87.2807C142.042 87.7109 133.873 87.2054 132.157 87.0602C131.135 86.9741 130.576 86.8504 129.635 87.0118C128.667 87.1731 127.935 87.5227 126.709 87.4151C126.247 87.3775 126.015 87.356 125.833 87.2538C123.896 86.1835 125.779 78.1755 127.532 78.0787C127.914 78.0571 128.151 78.4282 129.14 78.5466C129.608 78.6057 129.812 78.5519 130.614 78.5358C131.302 78.5197 131.657 78.5466 132.399 78.5681C133.609 78.6057 135.906 78.638 137.578 78.595C139.423 78.5519 140.789 78.4121 142.231 78.2615C147.27 77.7345 149.792 77.4709 152.352 76.5728C155.262 75.5509 157.94 74.5667 159.403 71.9476C160.613 69.7802 160.484 67.3976 160.446 66.8222C160.285 64.402 159.306 63.762 159.037 60.562C158.919 59.1045 158.844 58.0988 159.333 56.9048C159.564 56.3294 160.484 54.3448 162.748 53.5811C165.072 52.8013 167.035 53.9038 167.433 54.1404C169.197 55.1892 169.503 57.2544 169.659 58.0558C170.299 61.3096 169.078 65.9079 168.417 67.6827C168.315 67.9624 168.019 68.7153 168.363 69.2908C168.734 69.9092 169.648 69.9845 169.901 70.0114C172.725 70.318 178.426 73.8676 180.05 75.083C182.072 76.5943 180.738 76.6911 185.336 84.2151C185.336 84.2151 191.027 93.5247 190.967 97.0797L190.962 97.0689Z" fill="#E62B27"/>
<path d="M106.66 132.134C106.66 132.134 106.692 133.264 106.466 135.222C106.305 136.604 105.912 138.416 104.938 140.627C104.234 142.218 101.448 145.757 100.851 145.838C98.1943 146.204 97.7103 155.895 94.1553 155.605C91.7029 155.406 92.2138 155.217 87.9435 155.847C81.6941 156.761 81.2262 156.852 77.838 156.761C76.2945 156.718 73.8904 158.036 73.8474 159.418C73.8098 160.644 75.6545 161.768 77.1012 162.145C78.2145 162.435 78.5479 162.145 81.7694 161.838C84.0605 161.617 84.0336 161.795 86.0935 161.564C87.4703 161.408 87.3519 161.349 89.7345 161.047C91.0037 160.886 91.6329 160.827 92.8592 160.633C93.9886 160.456 94.8545 160.289 95.0212 160.257C97.5919 159.741 100.813 157.627 101.862 156.761C108.241 151.48 106.697 132.134 106.67 132.134H106.66Z" fill="#E62B27"/>
<path d="M106.66 132.134C106.939 137.341 105.24 142.348 101.443 145.989C101.217 146.171 101.05 146.247 100.765 146.317C99.7324 146.946 99.4259 148.312 98.9472 149.479C98.1351 151.582 97.678 154.002 95.9355 155.626C95.5482 155.96 94.9943 156.212 94.4619 156.245C94.0908 156.277 92.7086 156.132 92.3213 156.105C89.1375 156.137 85.8676 157.014 82.6461 157.353C81.0111 157.595 79.3062 157.562 77.6605 157.541C76.5849 157.648 74.9499 158.31 74.6487 159.439C74.8961 160.51 76.6387 161.236 77.6605 161.435C79.1341 161.467 80.8713 161.037 82.4094 160.983C83.5119 160.891 84.5876 160.94 85.6793 160.816C88.7556 160.364 92.3106 160.058 95.3546 159.445C97.3499 158.885 99.2914 157.799 101.007 156.621C102.69 155.465 103.728 153.55 104.471 151.55C106.59 145.359 106.794 138.647 106.665 132.129L106.66 132.134ZM106.66 132.134C107.321 139.078 107.563 148.812 104.073 155.024C103.486 156.019 102.674 156.96 101.744 157.643C99.9099 158.977 97.9792 160.138 95.715 160.816C93.795 161.306 91.0844 161.601 89.116 161.897L87.5079 162.15C85.8622 162.456 84.1734 162.467 82.517 162.564C80.2151 162.639 77.8003 163.645 75.6329 162.467C70.9163 160.246 73.3849 156.438 77.5745 155.987C79.204 156.008 80.839 156.056 82.4632 155.847C85.7546 155.567 89.0676 154.696 92.4128 154.766C92.6279 154.782 94.1983 154.975 94.3758 154.959C96.5163 154.68 97.5812 149.355 98.6353 147.559C99.0763 146.709 99.6518 145.612 100.738 145.413C100.808 145.402 100.781 145.397 100.776 145.397C100.776 145.392 100.754 145.413 100.776 145.397L100.899 145.316C102.131 144.225 103.185 142.842 104.121 141.482C105.864 138.701 106.504 135.399 106.66 132.134Z" fill="#E62B27"/>
<path d="M38.0234 109.853C38.1364 109.492 41.5945 104.346 41.5945 106.007C41.5945 107.954 43.208 113.354 41.2019 116.877C40.2231 118.592 42.1646 116.554 39.9649 117.291C37.7653 118.028 37.1522 112.574 38.018 109.853H38.0234Z" fill="#751917"/>
<path d="M124.515 47.9827C127.032 60.6911 128.559 74.3677 129.85 86.8666L131.001 98.8652C131.281 102.947 131.878 107.067 130.893 111.16C130.474 113.263 129.016 115.096 127.5 116.527C126.01 117.963 124.375 119.2 122.67 120.313C119.25 122.518 115.56 124.25 111.731 125.498C115.388 123.825 118.9 121.851 122.084 119.469C124.725 117.414 127.505 115.172 128.936 112.112C130.216 107.938 129.339 103.372 128.952 99.0642C128.559 95.2296 128.016 90.486 127.742 87.0817C126.532 74.4699 125.429 60.6158 124.52 47.9827H124.515Z" fill="#F29699"/>
<path d="M63.8494 171.131C67.7539 169.685 72.0887 170.255 75.8965 171.847C79.8279 173.455 82.7375 177.704 82.4309 181.936C80.64 178.526 78.2897 175.784 74.8101 174.31C71.2928 172.793 67.7055 171.836 63.844 171.137L63.8494 171.131Z" fill="#CDE6D6"/>
<path d="M90.1217 176.074C94.2898 172.411 101.464 169.905 106.95 171.379C109.349 171.863 111.903 173.202 113.162 175.423C113.807 176.493 114.205 177.682 114.286 178.876C113.603 177.897 112.877 177.037 112.065 176.327C108.87 173.412 104.207 173.25 100.12 173.95C96.7261 174.504 93.5422 175.224 90.1163 176.079L90.1217 176.074Z" fill="#CDE6D6"/>
<path d="M73.6753 163.844C69.4642 165.038 67.0064 158.573 70.9862 156.75C70.7496 158.262 70.7872 159.402 71.2605 160.698C71.7499 161.983 72.5513 162.833 73.6807 163.844H73.6753Z" fill="#CDE6D6"/>
<path d="M91.8803 167.372C93.9509 168.754 92.8538 170.846 90.88 171.567C88.3845 172.546 85.3566 172.664 83.001 171.239C85.1039 171.11 86.9432 170.949 88.96 170.475C90.8639 170.013 92.9344 169.787 91.8803 167.372Z" fill="#CDE6D6"/>
<path d="M85.0178 81.4776C84.6198 82.6017 84.0013 83.5751 84.195 84.9788C84.2703 85.5382 84.4101 85.6887 84.5392 85.7318C84.9748 85.8824 85.8891 84.8659 86.3946 83.8763C86.6151 83.4461 86.6582 83.2148 86.8141 83.1933C87.2013 83.1503 87.7445 84.4249 87.9704 85.4736C88.5943 88.3187 87.2444 91.0346 86.599 92.3415C86.1042 93.3418 85.8568 93.842 85.4104 94.4444C84.964 95.0521 84.5876 95.4124 84.679 95.5415C84.7973 95.7082 85.6363 95.3748 86.2333 94.9929C87.6961 94.0464 88.2124 92.4168 88.7072 90.7818C89.315 88.7704 89.3903 87.1301 89.4387 86.0222C89.4548 85.6403 89.5086 84.1506 89.2558 81.9025C88.8363 78.1808 88.5513 75.6424 86.6904 73.6632C86.2171 73.163 85.4427 72.3617 84.2165 72.1089C82.1029 71.6733 79.9892 73.1415 80.0968 73.5718C80.1829 73.916 81.5973 73.3136 83.1193 74.1203C84.8027 75.0185 85.3405 76.96 85.4104 77.2343C85.8837 79.0575 85.2437 80.8484 85.0232 81.4669L85.0178 81.4776Z" fill="#F2979A"/>
<path d="M109.263 75.8951C108.865 77.0192 108.246 77.9926 108.44 79.3963C108.515 79.9556 108.655 80.1062 108.784 80.1492C109.22 80.2998 110.134 79.2834 110.639 78.2938C110.86 77.8635 110.903 77.6323 111.059 77.6108C111.446 77.5677 111.989 78.8424 112.215 79.8911C112.839 82.7361 111.489 85.4521 110.844 86.759C110.349 87.7593 110.102 88.2595 109.655 88.8618C109.209 89.4696 108.832 89.8299 108.924 89.959C109.042 90.1257 109.881 89.7923 110.478 89.4104C111.941 88.4639 112.457 86.8343 112.952 85.1993C113.56 83.1879 113.635 81.5476 113.683 80.4397C113.7 80.0578 113.753 78.5681 113.501 76.32C113.081 72.5983 112.796 70.0598 110.935 68.0807C110.462 67.5805 109.687 66.7792 108.461 66.5264C106.348 66.0908 104.234 67.559 104.342 67.9892C104.428 68.3334 105.842 67.7311 107.364 68.5378C109.047 69.436 109.585 71.3775 109.655 71.6518C110.128 73.475 109.488 75.2659 109.268 75.8844L109.263 75.8951Z" fill="#F2979A"/>
<path d="M38.7709 118.114C38.8623 118.388 41.39 117.915 43.5036 117.269C45.6173 116.629 45.9184 116.247 47.4082 116.065C49.3551 115.828 50.8287 116.237 51.1299 116.328C52.7702 116.807 53.8299 117.646 54.6635 118.318C55.2067 118.759 56.406 119.743 57.3902 121.341C58.9499 123.874 58.9875 126.38 59.0252 128.547C59.0736 131.527 58.4175 133.726 58.2669 134.227C57.5139 136.663 56.8793 138.045 57.0729 138.18C57.3633 138.378 59.9449 135.942 60.4612 132.764C60.4827 132.629 60.4988 131.166 60.5365 128.241C60.5472 127.106 60.5526 126.649 60.5365 126.041C60.4934 124.272 60.3375 122.798 60.2783 122.416C59.8749 119.679 56.2286 116.355 52.1302 115.183C48.2418 114.069 44.8428 115.371 42.3366 116.28C40.6209 116.904 38.6848 117.855 38.7709 118.108V118.114Z" fill="#F29699"/>
<path d="M24.6048 32.6387C24.2875 34.3704 23.9702 37.6672 25.8418 40.3294C28.0791 43.5079 32.2311 44.0511 34.4953 44.3092C51.7322 46.3045 60.3536 47.2995 69.2383 46.2292C77.9509 45.1805 85.3459 42.9647 100.136 38.5385C119.449 32.7624 109.72 33.4077 116.614 31.4339C117.518 31.1758 121.304 30.1324 121.697 27.965C121.788 27.4595 121.643 27.2766 121.622 25.2222C121.611 24.4908 121.622 23.6034 121.681 22.5439C121.788 20.441 121.96 19.8064 121.562 19.4514C120.406 18.435 116.448 21.4467 113.463 23.2968C110.413 25.1845 106.165 26.7066 97.6726 29.7506C77.0313 37.1455 57.4387 37.3015 57.4387 37.3015C49.5756 37.366 38.0879 36.6131 24.621 32.6333L24.6048 32.6387Z" fill="#F29699"/>
<path d="M28.9557 46.4122C29.0471 46.7457 23.0559 48.0579 17.7853 51.3547C14.1227 53.6458 11.6542 55.9907 11.6542 55.9907C11.1271 56.4909 10.7668 56.8727 10.7399 56.8458C10.6592 56.7705 13.4021 52.6831 17.2421 49.9779C22.6633 46.1541 28.8696 46.0788 28.9611 46.4068L28.9557 46.4122Z" fill="#476B5E"/>
<path d="M176.532 72.921C180.996 75.7822 183.142 80.8538 185.67 85.2746C187.595 89.2867 192.005 95.3587 189.747 99.8333C189.994 98.564 189.935 97.2894 189.548 96.1331C188.364 92.6803 185.944 89.3029 184.261 86.0545C183.045 83.801 181.878 81.4938 180.781 79.1919C179.689 76.8793 178.2 74.8679 176.532 72.9264V72.921Z" fill="#F29699"/>
<path d="M161.931 54.4954C165.97 52.285 169.078 54.9848 169.713 59.1153C170.213 62.6165 169.331 66.2145 167.755 69.2961C166.728 71.3183 165.513 73.2813 163.974 74.9593C165.792 70.9472 167.718 66.8813 168.164 62.4982C168.68 58.0666 167.465 53.2047 161.925 54.5008L161.931 54.4954Z" fill="#F29699"/>
<path d="M102.303 105.384C102.056 105.158 101.674 104.851 101.168 104.566C100.507 104.19 99.9368 103.872 99.3129 103.969C98.7267 104.061 98.802 104.405 97.9361 104.851C96.9143 105.373 96.4518 105.077 95.7418 105.652C95.1986 106.093 95.1933 106.497 94.9889 106.481C94.4511 106.427 93.6336 103.512 94.8598 101.958C95.5751 101.054 96.3711 101.382 97.9845 100.586C100.727 99.2363 101.314 96.8645 102.034 97.0528C102.583 97.1926 103.008 98.7684 102.309 105.394L102.303 105.384Z" fill="#751917"/>
<path d="M139.45 39.7325C133.685 35.3977 126.666 33.2249 119.47 33.2572C126.607 31.6653 134.653 34.1822 139.45 39.7325Z" fill="#476B5E"/>
<path d="M66.119 8.71678C77.2464 6.33426 88.6104 5.2425 99.9852 4.9467C103.766 4.81225 107.676 5.04351 111.419 5.4146L114.248 5.69964C115.695 5.9309 119.072 5.88788 119.271 7.90468C119.234 9.67949 116.803 10.6153 115.587 11.3144C112.199 12.9924 108.822 14.6919 105.39 16.3054C98.474 19.6076 90.9983 21.2425 83.555 22.7699C89.8151 20.6724 96.1344 18.7847 102.131 16.0257C103.798 15.262 112.828 10.4163 114.646 9.4805C115.539 9.00183 116.545 8.53393 117.206 7.81326C117.233 7.78099 117.233 7.75947 117.206 7.82401C117.195 7.85628 117.185 7.91544 117.185 7.99611C117.185 8.06065 117.222 8.21662 117.26 8.27578C117.346 8.42099 117.378 8.41023 117.351 8.40485C116.34 7.95847 115.216 7.9262 114.028 7.79174C110.354 7.48519 106.493 7.04956 102.83 6.9904C90.5627 6.95813 78.3543 7.59813 66.1082 8.71141L66.119 8.71678Z" fill="#CDE6D6"/>
<path d="M153.358 32.4881C148.061 33.1603 142.715 33.1066 137.401 32.644C134.755 32.3536 132.082 32.074 129.468 31.278C126.881 30.5089 124.434 29.4333 122.068 28.2017C125.322 28.9385 128.441 29.8797 131.695 30.3852C138.891 31.3425 146.13 31.676 153.358 32.4881Z" fill="#CDE6D6"/>
<path d="M93.2518 55.1139C95.2256 55.356 97.3284 55.6787 99.2861 55.3237C102.126 54.361 104.621 52.5378 106.907 50.6232C110.72 47.1812 114.619 43.637 119.067 41.0071C124.483 37.3822 131.184 36.7745 137.331 38.7697C133.324 38.4471 129.156 38.5708 125.392 39.9529C122.579 40.9909 120.116 42.7711 117.647 44.4545C115.243 46.1271 112.715 48.1976 110.419 50.0477C107.23 52.683 103.621 55.2538 99.4366 56.039C97.3177 56.2272 95.2632 55.6571 93.2464 55.1139H93.2518Z" fill="#CDE6D6"/>
<path d="M86.9324 53.8287C80.6776 53.4415 74.482 54.6731 68.7113 56.9964C58.4551 61.1644 46.6446 62.7509 35.8453 59.5993C31.3169 58.4161 26.9068 56.5446 22.3246 55.7702C19.2591 55.2324 16.129 55.1356 13.058 55.8347C16.0322 54.7161 19.2859 54.4956 22.4537 54.7376C28.7515 55.2862 34.6836 57.7976 40.8469 58.6474C46.9404 59.481 53.1575 59.2067 59.1866 57.9052C62.2145 57.2868 65.1993 56.4317 68.1412 55.4421C74.1432 53.4038 80.7099 52.6778 86.9324 53.8233V53.8287Z" fill="#CDE6D6"/>
<path d="M87.6477 54.2911C86.2172 53.678 84.9963 52.5755 83.7647 51.672C81.6995 50.0532 79.8602 48.1762 78.4834 45.8905C80.0269 46.4444 81.3553 47.2404 82.6783 48.1439C84.964 49.596 86.8518 51.6397 87.6477 54.2858V54.2911Z" fill="#CDE6D6"/>
<path d="M102.513 105.959L101.168 104.566L98.8504 104.265L97.9308 104.846L96.6992 105.201L95.2363 106.142L95.7365 107.927L97.9792 109.987L99.8562 110.627L101.228 109.482L102.513 105.959Z" fill="#F29699"/>
<path d="M177.866 79.1543C178.979 81.6498 179.243 84.7368 178.173 87.356C177.952 87.7808 177.721 88.1519 177.678 88.4531C177.63 88.7435 177.743 88.9855 177.979 89.2329L177.882 89.1576C182.099 91.8629 187.493 95.8857 188.321 101.135C187.396 98.5802 185.627 96.6225 183.642 94.8477C181.679 93.0783 179.571 91.4595 177.339 90.045C176.839 89.6578 176.565 88.8995 176.715 88.2756C176.855 87.6787 177.162 87.2914 177.366 86.9203C178.442 84.6077 178.458 81.6713 177.872 79.1597L177.866 79.1543Z" fill="#57111A"/>
<path d="M177.479 87.5872C176.936 89.3782 175.973 91.4487 174.564 92.562C174.58 92.476 174.537 92.4491 174.586 92.4867C174.623 92.519 174.709 92.562 174.801 92.5943C176.489 93.2397 177.877 94.4981 179.216 95.6598C182.056 98.3113 185.804 102.13 183.212 106.206C184.368 103.012 182.809 100.694 180.604 98.5103C178.716 96.6548 176.812 94.6272 174.435 93.4225C173.445 92.9546 173.553 92.1533 174.419 91.6531C175.747 90.6044 176.602 89.0447 177.479 87.5872Z" fill="#57111A"/>
<path d="M173.02 96.6817C171.751 98.3919 169.616 99.5697 167.47 99.6397C167.427 99.645 167.416 99.6612 167.459 99.645C167.524 99.6397 167.68 99.5052 167.712 99.3923C167.739 99.3062 167.739 99.2309 167.734 99.1825C167.718 99.1449 167.755 99.1986 167.755 99.1986C168.567 100.086 169.697 100.791 170.552 101.699C171.633 102.888 172.617 103.926 173.757 105.05C174.473 105.792 175.215 106.508 175.946 107.201C176.688 107.917 177.28 108.363 178.302 108.223C179.248 108.148 180.195 107.691 181.088 107.148C180.114 108.385 178.334 109.514 176.645 109.046C175.064 108.368 173.972 107.212 172.709 106.158C171.122 104.84 169.853 103.146 168.347 101.748C167.658 101.027 165.357 99.3654 166.986 98.4565C167.411 98.3166 167.798 98.4188 168.153 98.4027C169.923 98.3919 171.547 97.6659 173.026 96.6817H173.02Z" fill="#57111A"/>
<path d="M66.3664 7.74326C46.3918 11.153 22.4052 19.231 22.9161 22.5708C23.4539 26.0505 52.5389 29.0138 76.0309 25.2545C97.0434 21.8932 119.981 11.1853 119.47 7.74326C118.943 4.19368 91.3694 3.47838 66.361 7.74326H66.3664Z" stroke="#57111A" stroke-width="1.61345" stroke-miterlimit="10"/>
<path d="M121.611 28.2017C121.643 25.319 121.729 20.9466 121.611 17.9724C121.487 14.8424 120.869 10.0289 119.476 7.74317" stroke="#57111A" stroke-width="1.61345" stroke-miterlimit="10"/>
<path d="M25.7558 40.7706C24.7716 37.7158 24.3306 35.8818 23.6959 32.9454C23.1043 30.2187 22.9107 25.943 22.9107 22.8398" stroke="#57111A" stroke-width="1.61345" stroke-miterlimit="10"/>
<path d="M25.6105 40.3079C33.6401 45.9872 56.0457 48.1439 79.4138 44.3415C98.0222 41.3136 115.937 33.354 122.073 27.4057" stroke="#57111A" stroke-width="1.61345" stroke-miterlimit="10"/>
<path d="M23.4809 31.262C31.5104 36.9413 53.916 39.0979 77.284 35.2956C95.8924 32.2677 115.48 23.9262 121.611 17.9779" stroke="#57111A" stroke-width="1.61345" stroke-miterlimit="10"/>
<path d="M23.9433 36.1239C31.9728 41.8032 54.3785 43.9598 77.7466 40.1575C96.355 37.1296 115.942 28.7881 122.073 22.8398" stroke="#57111A" stroke-width="0.537815" stroke-miterlimit="10"/>
<path d="M25.9441 41.1092C24.4597 42.7496 22.088 45.1267 18.7643 47.4501C13.9723 50.8007 11.7243 50.9513 7.75519 54.0867C3.12996 57.7439 0.268781 62.4982 0.887268 63.1489C1.64559 63.9503 6.59889 57.4158 15.3276 56.238C16.3495 56.0982 18.7051 55.0655 27.2725 57.6094C37.4103 60.6158 42.3421 61.245 42.9283 61.315C52.3616 62.4713 60.7193 60.0296 65.721 58.5667C72.3146 56.6413 73.6161 55.8454 78.7684 54.8612C81.9953 54.2427 86.4377 54.1889 91.5361 55.5496C97.7156 57.1953 98.6945 56.8296 100.738 56.5123C103.33 56.1089 104.901 55.1086 113.646 48.2729C121.137 42.4161 122.084 41.5126 124.768 40.5822C126.22 40.0766 129.936 38.7966 134.653 39.2108C138.401 39.5388 138.579 40.5714 140.832 40.1734C144.452 39.5281 143.844 36.9896 149.072 34.4081C152.094 32.9129 155.025 32.5472 154.977 32.074C154.907 31.3748 147.092 31.4555 140.149 30.837C132.566 30.1593 126.381 28.6696 122.068 27.4057" stroke="#57111A" stroke-width="1.61345" stroke-miterlimit="10"/>
<path d="M36.0388 101.603C33.0916 86.9902 30.978 72.2272 28.4879 57.5289" stroke="#57111A" stroke-width="1.61345" stroke-miterlimit="10"/>
<path d="M124.612 41.0501C127.344 63.6437 129.495 86.2212 131.646 109.336C131.646 109.353 131.646 109.374 131.646 109.396C131.63 113.687 128.414 117.441 125.193 119.587C108.52 129.806 90.283 134.318 71.4111 135.184C67.7109 135.356 63.7903 134.996 60.3751 134.77C60.0955 134.754 59.9019 134.49 59.9664 134.216C61.3808 128.031 61.2087 120.824 56.5029 117.162C53.8138 115.01 51.1946 114.096 47.7472 114.209C44.6278 114.311 42.0732 116.667 39.0399 116.882C38.7979 116.898 38.5882 116.71 38.5667 116.468C38.3784 114.188 38.0504 111.472 37.5717 109.724" stroke="#57111A" stroke-width="1.61345" stroke-miterlimit="10"/>
<path d="M45.2893 93.8151C40.3038 98.2682 35.6248 102.969 31.5696 108.25C30.2251 109.993 28.9074 111.778 27.7942 113.634C26.6916 115.468 25.7451 117.468 25.9172 119.415C26.0732 121.523 27.579 123.051 29.1925 124.347C32.57 127.23 36.5713 129.15 40.8953 130.198C36.41 129.822 32.0053 128.085 28.4288 125.342C23.4379 122.002 23.4325 117.603 26.412 112.8C31.2738 105.185 37.8029 98.7684 45.2893 93.8044V93.8151Z" fill="#57111A"/>
<path d="M47.7257 98.9835C45.2356 101.495 43.2941 104.389 40.9654 107.029C39.3089 109.256 34.3664 113.133 35.3183 115.984C35.6786 117.108 36.3563 117.355 37.4588 117.011C39.8306 116.301 42.3529 115.113 44.7946 114.333C46.4618 113.763 48.3334 113.203 50.119 113.623C51.0118 113.827 51.8292 114.236 52.5176 114.79C51.7378 114.381 50.8934 114.134 50.0544 114.064C48.3227 113.929 46.7468 114.618 45.1872 115.317C42.7885 116.339 40.363 117.64 37.8837 118.479C35.3344 119.431 33.4844 117.377 33.5919 114.892C33.6726 113.8 34.1351 112.875 34.646 112.085C36.1627 109.831 38.244 108.116 40.0457 106.169C42.4659 103.663 44.7892 100.914 47.7365 98.9782L47.7257 98.9835Z" fill="#57111A"/>
<path d="M31.9676 127.267C31.2469 128.633 31.5212 130.032 31.5965 130.338C31.9783 131.973 35.0869 133.194 38.2546 132.328" stroke="#57111A" stroke-width="1.61345" stroke-miterlimit="10"/>
<path d="M32.3547 131.462C31.6071 132.952 31.5372 134.598 32.3493 135.684C33.2367 136.873 34.8394 136.921 36.2377 136.964C38.2007 137.023 39.7389 136.415 40.5886 136.001" stroke="#57111A" stroke-width="1.61345" stroke-miterlimit="10"/>
<path d="M34.8718 137.238C34.7535 137.981 34.4953 139.804 34.9578 140.992C36.582 145.16 43.0304 145.542 43.6113 145.569C47.6825 145.757 50.9471 143.988 53.0499 142.665C57.0407 140.153 59.0467 136.975 59.9341 134.399" stroke="#57111A" stroke-width="1.61345" stroke-miterlimit="10"/>
<path d="M38.1147 129.542C38.5557 133.242 40.2606 135.157 43.7833 136.2C44.8159 136.507 45.9023 136.684 47.0855 136.819C46.5531 137.093 45.9722 137.254 45.3806 137.367C40.7662 138.185 36.0764 134.329 38.1147 129.537V129.542Z" fill="#57111A"/>
<path d="M127.995 78.5412C134.814 78.1862 141.698 77.8797 148.394 76.5566C152.637 75.6585 156.52 74.7227 158.817 70.958C159.166 70.318 159.344 69.5973 159.419 68.796C159.543 67.2148 159.602 65.4776 159.252 63.9287C159.027 62.6864 158.354 61.5139 158.064 60.2555C157.542 57.8568 158.564 55.2538 160.441 53.7533C162.668 51.7903 166.303 51.7956 168.411 53.9254C170.665 56.2864 170.396 60.0887 170.159 63.0521C169.81 66.1123 168.293 68.9197 166.674 71.4635C165.749 72.921 164.679 74.2871 163.49 75.5294C166.029 72.1573 168.207 68.3442 169.025 64.1869C169.363 61.514 169.503 56.8834 167.497 54.9311C165.798 53.323 163.157 53.3607 161.42 54.9311C159.65 56.4101 158.978 58.9109 159.973 61.0138C160.694 62.6326 161.129 64.5257 161.097 66.3059C161.065 68.1452 161.108 70.0168 160.172 71.7163C158.672 74.0827 156.359 75.8091 153.724 76.6212C145.366 79.0413 136.54 78.8477 127.989 78.5412H127.995Z" fill="#57111A"/>
<path d="M128.791 86.9634C136.062 86.7536 143.328 85.4898 150.594 86.5385L150.965 86.5923L151.158 86.9257C152.874 89.8676 154.52 92.7879 157.155 94.9177C161.549 98.5103 167.852 98.8114 173.026 96.6763C169.025 99.1395 163.802 99.6881 159.392 97.8756C154.853 96.1116 151.987 91.7714 149.792 87.7002L150.357 88.0874C148.609 87.8185 146.834 87.6625 145.049 87.5657C139.649 87.3022 134.179 87.6464 128.791 86.9526V86.9634Z" fill="#57111A"/>
<path d="M169.751 94.3045C173.671 91.5778 176.5 87.5603 177.156 82.8168C177.382 81.2679 177.436 79.6706 177.35 78.0087C180.426 84.2689 176.613 92.7395 169.751 94.3045Z" fill="#57111A"/>
<path d="M165.76 98.4565C166.459 99.8871 174.478 108.761 176.672 109.557C177.56 109.88 179.394 109.987 181.384 108.03C181.384 108.03 182.739 106.707 183.029 104.641C183.54 101 178.022 96.4558 172.553 92.6104" stroke="#57111A" stroke-width="1.61345" stroke-miterlimit="10"/>
<path d="M175.645 89.2867C176.14 89.4857 184.605 95.2726 187.353 100.543C187.821 101.447 187.585 103.867 186.073 105.319C184.89 106.459 182.47 106.136 182.524 106.341" stroke="#57111A" stroke-width="1.61345" stroke-miterlimit="10"/>
<path d="M167.68 69.2101C170.649 69.4629 175.758 70.5923 179.012 73.8837C181.539 76.4437 181.174 76.7771 185.089 83.7795C185.96 85.3392 188.956 89.8891 190.58 95.3802C190.957 96.6548 191.392 98.521 190.51 100.14C189.849 101.35 188.563 101.877 187.81 102.108" stroke="#57111A" stroke-width="1.61345" stroke-miterlimit="10"/>
<path d="M109.37 72.0766C109.349 69.9039 107.482 67.1556 105.686 67.5267C103.062 68.0699 101.599 74.9647 102.846 80.5257C103.675 84.2097 106.041 88.8242 108.203 88.6252C109.994 88.4639 111.166 84.9788 111.5 83.1341C111.989 80.3805 111.564 77.9012 111.349 77.7076C111.252 77.6215 110.994 78.2185 110.397 79.2887C109.87 80.2353 109.187 80.2514 108.633 80.0094C107.87 79.676 107.611 77.9603 108.337 75.8575C109.139 73.5287 109.381 73.4319 109.365 72.082L109.37 72.0766Z" fill="#57111A" stroke="#57111A" stroke-width="1.61345" stroke-miterlimit="10"/>
<path d="M84.835 78.2508C84.8135 76.078 82.9472 73.3297 81.1509 73.7008C78.5264 74.244 77.0635 81.1388 78.3113 86.6998C79.1395 90.3839 81.5059 94.9983 83.6679 94.7993C85.4588 94.638 86.6313 91.1529 86.9647 89.3082C87.4541 86.5546 87.0292 84.0753 86.8141 83.8817C86.7173 83.7956 86.4592 84.3926 85.8622 85.4629C85.3351 86.4094 84.6521 86.4255 84.0982 86.1835C83.3345 85.8501 83.0763 84.1344 83.8024 82.0316C84.6037 79.7029 84.8457 79.6061 84.8296 78.2561L84.835 78.2508Z" fill="#57111A" stroke="#57111A" stroke-width="1.61345" stroke-miterlimit="10"/>
<path d="M1.80699 62.88C8.06718 58.7926 12.1008 58.8087 14.6231 59.5832C17.3821 60.4276 19.0763 62.4013 23.1368 63.0145C25.7398 63.4071 27.9502 63.036 29.3539 62.6864" stroke="#57111A" stroke-width="1.07563" stroke-miterlimit="10"/>
<path d="M155.187 32.1386C154.251 34.8869 152.643 35.9034 151.524 36.1669C150.384 36.4358 149.572 36.1023 147.953 36.5111C146.56 36.8607 145.28 37.5222 144.624 38.0223" stroke="#57111A" stroke-width="1.07563" stroke-miterlimit="10"/>
<path d="M104.664 93.3956C103.863 94.9284 102.836 96.3482 101.679 97.6551C100.491 98.9674 99.1408 100.269 97.4629 100.93C96.6292 101.345 95.5267 101.49 94.9297 102.151C93.7681 104.695 95.6827 107.852 97.9415 109.342C98.5976 109.826 99.2753 110.175 99.727 110.106C100.975 109.831 101.4 107.761 101.701 106.556C102.368 103.222 102.588 99.8171 102.131 96.4181C103.54 99.5482 104.481 113.747 98.2803 111.359C94.7254 109.708 91.6598 105.222 93.7143 101.377C94.5156 100.307 95.8924 100.177 97.0111 99.7634C100.152 98.5802 102.497 95.8911 104.67 93.401L104.664 93.3956Z" fill="#57111A"/>
<path d="M96.5432 98.0155C94.8706 101.108 93.5583 104.055 92.3321 107.352C91.2403 103.818 93.1765 99.5375 96.5432 98.0155Z" fill="#57111A"/>
<path d="M94.9835 106.475C95.8709 103.254 100.211 104.738 100.168 107.61C99.7539 107.169 99.3882 106.782 98.9795 106.475C97.7479 105.453 96.2474 105.427 94.9889 106.475H94.9835Z" fill="#57111A"/>
<path d="M97.5597 105.373C97.635 104.389 98.5116 103.517 99.5066 103.399C100.824 103.334 101.975 104.437 102.153 105.674C101.416 105.163 100.631 104.647 99.8239 104.48C98.9634 104.421 98.318 104.889 97.565 105.378L97.5597 105.373Z" fill="#57111A"/>
<path d="M80.7476 134.689C81.6834 137.884 82.5546 141.837 82.9472 146.408C83.2323 149.737 83.2107 152.76 83.0386 155.379" stroke="#57111A" stroke-width="1.61345" stroke-miterlimit="10"/>
<path d="M86.2655 134.151C87.2013 137.346 88.0726 141.299 88.4652 145.87C88.7502 149.199 88.7287 152.222 88.5566 154.841" stroke="#57111A" stroke-width="1.61345" stroke-miterlimit="10"/>
<path d="M99.3076 130.559C100.604 136.975 100.695 142.369 99.7916 145.859C98.4148 151.173 97.2155 152.458 96.4948 153.093C94.4834 154.863 91.278 155.191 84.8672 155.841C79.6666 156.368 77.0635 156.632 76.3429 156.514C76.2514 156.497 75.8319 156.428 75.3479 156.573C74.2454 156.912 73.1751 158.267 73.3365 159.778C73.4548 160.881 74.1916 161.752 74.9822 162.161C75.4877 162.419 75.9234 162.44 77.085 162.435C79.2202 162.424 80.285 162.397 80.7476 162.344C85.2276 161.822 86.6474 162.085 89.9926 161.521C94.6393 160.73 98.2696 160.117 101.072 157.584C102.341 156.438 104.428 154.298 105.993 146.51C106.858 142.218 106.686 136.001 105.164 128.805" stroke="#57111A" stroke-width="1.61345" stroke-miterlimit="10"/>
<path d="M82.6729 165.565C81.8232 165.855 80.9358 166.253 80.9573 166.662C80.995 167.372 83.7432 167.894 85.9697 167.899C88.9976 167.899 92.1277 166.947 92.0793 166.318C92.0578 166.049 91.4447 165.732 88.8524 165.495" stroke="#57111A" stroke-width="1.61345" stroke-miterlimit="10"/>
<path d="M88.5782 162.064C88.5566 163.849 88.5298 165.635 88.5082 167.42" stroke="#57111A" stroke-width="1.61345" stroke-miterlimit="10"/>
<path d="M83.2 162.817C83.1785 164.602 83.1516 166.388 83.1301 168.173" stroke="#57111A" stroke-width="1.61345" stroke-miterlimit="10"/>
<path d="M77.1119 156.229C77.3808 153.997 76.445 151.937 74.7778 151.012C72.8524 149.942 70.7926 150.85 70.4538 151.012C67.0655 152.588 66.802 157.401 66.7482 158.358C66.7106 159.025 66.4148 164.393 69.7008 166.119C69.959 166.253 71.8413 167.2 73.7506 166.259C75.563 165.361 75.8857 162.715 75.9503 162.44" stroke="#57111A" stroke-width="1.61345" stroke-miterlimit="10"/>
<path d="M80.9573 166.662C80.7637 166.813 79.6558 167.7 79.6504 169.066C79.6504 169.937 80.1076 170.567 80.2689 170.782C81.6081 172.573 84.5929 172.449 86.7227 172.363C88.2232 172.304 92.2891 172.132 93.1872 170.115C93.3862 169.669 93.4131 169.174 93.4131 169.125C93.4776 167.652 92.3751 166.592 92.0793 166.323" stroke="#57111A" stroke-width="1.61345" stroke-miterlimit="10"/>
<path d="M69.561 151.544C68.0444 151.716 61.5583 151.48 56.9923 152.313C52.8563 153.072 52.3938 160.848 52.4583 165.14C52.5982 173.729 52.6304 178.22 53.0768 183.141C53.0983 183.383 53.0876 183.792 53.3834 184.329C54.1365 185.679 59.7351 185.749 64.6077 185.669C76.9291 185.464 78.8491 186.357 81.5597 184.448C84.1197 182.646 82.5869 177.994 81.8555 176.827" stroke="#57111A" stroke-width="1.61345" stroke-miterlimit="10"/>
<path d="M62.3489 171.217C68.0551 168.695 76.203 169.507 80.6992 174.084C82.8935 176.225 84.4693 179.537 83.4958 182.625C82.3718 185.69 79.0857 186.287 75.7082 186.061C74.7509 185.991 73.8098 185.846 72.8847 185.636C74.7509 185.658 76.6387 185.561 78.4403 185.131C80.1291 184.76 81.5919 183.985 82.1459 182.313C82.1782 182.216 82.2104 182.114 82.2696 182.033L82.1889 182.194C82.4632 181.258 82.3126 180.124 82.0545 179.204C81.635 177.682 80.6615 176.343 79.5429 175.208C75.4071 170.97 67.9583 170.007 62.3435 171.223L62.3489 171.217Z" fill="#57111A"/>
<path d="M69.717 166.366C69.7761 167.066 69.8407 169.588 69.8998 170.287" stroke="#57111A" stroke-width="1.61345" stroke-miterlimit="10"/>
<path d="M74.8477 154.448C70.6366 155.847 70.4914 161.628 73.9334 163.968C72.874 163.742 71.8898 163.043 71.2713 162.075C69.319 159.111 70.9378 154.287 74.8531 154.448H74.8477Z" fill="#57111A"/>
<path d="M58.1593 152.34C57.0138 152.867 55.8252 155.637 55.8252 157.578C55.8252 162.559 55.7983 164.441 55.7768 171.944C55.7607 178.177 54.997 182.42 56.8309 182.705C58.6649 182.99 67.0387 182.754 68.3671 182.754C72.9116 182.754 74.0034 182.646 82.8935 182.221" stroke="#57111A" stroke-width="1.07563" stroke-miterlimit="10"/>
<path d="M80.2689 170.782C80.1936 172.105 80.1183 173.428 80.0484 174.751" stroke="#57111A" stroke-width="1.61345" stroke-miterlimit="10"/>
<path d="M83.1516 184.13C85.8729 183.544 88.6696 183.291 91.4608 183.238C94.9297 183.152 98.3718 183.517 101.83 183.259C105.245 183.071 109.859 182.969 113.28 182.92C114.587 182.668 114.081 178.446 113.807 177.429C111.629 170.303 102.545 171.056 96.7583 172.766C94.1284 173.509 91.6329 174.746 89.3311 176.305C91.4124 174.461 93.8649 172.998 96.5109 172.013C100.48 170.626 104.944 169.695 109.128 170.911C113.898 172.315 116.168 176.633 115.689 181.441C115.609 182.748 114.915 184.512 113.328 184.518L112.274 184.528L108.112 184.55C105.627 184.534 102.244 184.652 99.7701 184.62C94.1714 184.313 88.7449 183.571 83.1516 184.136V184.13Z" fill="#57111A"/>
<path d="M82.1943 183.856C92.1708 183.743 102.68 183.948 112.678 183.759" stroke="#57111A" stroke-width="1.61345" stroke-miterlimit="10"/>
<path d="M92.7301 170.932C92.7301 172.105 92.3644 172.766 92.7301 174.079" stroke="#57111A" stroke-width="1.61345" stroke-miterlimit="10"/>
<path d="M114.936 178.65C114.399 179.118 113.468 179.93 112.242 180.436C110.096 181.318 108.262 181.581 106.885 181.581C103.804 181.57 95.5805 181.581 83.6356 181.581" stroke="#57111A" stroke-width="1.07563" stroke-miterlimit="10"/>
<path d="M73.3795 103.673C72.1049 102.947 68.9479 101.565 69.8299 104.378C70.6313 106.922 76.16 106.513 78.322 106.233C75.9449 106.997 70.2924 107.599 69.3513 104.528C68.5284 101.172 71.8575 102.34 73.3795 103.673Z" fill="#57111A"/>
<path d="M118.373 101.022C118.04 99.8333 118.421 98.4296 119.459 97.6928C119.96 97.2464 120.917 96.9936 121.374 97.6605C122.955 100.538 120.099 103.867 117.868 105.464C119.605 103.652 122.208 100.554 120.965 97.9671C120.653 97.5153 120.089 97.7788 119.696 98.0262C118.712 98.6178 118.271 99.8279 118.373 101.022Z" fill="#57111A"/>
<path d="M113.043 116.812C113.576 116.204 114.985 115.607 115.372 116.672C115.566 117.624 115.152 118.447 114.651 119.205C113.995 120.319 111.306 120.824 111.559 118.931C111.656 118.49 111.898 118.108 112.221 117.839C111.989 118.184 111.823 118.571 111.823 118.958C111.763 119.905 112.769 119.84 113.382 119.571C114.345 119.119 115.012 117.812 114.969 116.785C114.711 116.016 113.554 116.522 113.043 116.812Z" fill="#57111A"/>
<path d="M120.083 69.0649C119.529 69.6511 118.099 70.1889 117.755 69.1079C117.604 68.1452 118.045 67.3439 118.577 66.6071C119.277 65.5207 121.987 65.1281 121.654 67.005C121.541 67.4461 121.283 67.8118 120.949 68.0645C121.191 67.7257 121.38 67.3492 121.396 66.962C121.492 66.0208 120.487 66.0424 119.863 66.2897C118.884 66.7039 118.163 67.9785 118.163 69.0111C118.389 69.7909 119.567 69.3338 120.089 69.0595L120.083 69.0649Z" fill="#57111A"/>
<path d="M42.2453 82.4995C41.5677 82.0585 40.7771 80.7516 41.7828 80.2138C42.7025 79.8911 43.5683 80.1815 44.3912 80.5741C45.5905 81.0689 46.4618 83.6612 44.5525 83.6719C44.1008 83.6397 43.692 83.4514 43.3801 83.1718C43.7566 83.3492 44.1599 83.4676 44.5418 83.4084C45.483 83.3331 45.284 82.3489 44.929 81.7788C44.3428 80.886 42.9606 80.4128 41.9441 80.5956C41.2181 80.9613 41.8796 82.037 42.2399 82.4995H42.2453Z" fill="#57111A"/>
<path d="M76.0417 76.4545C74.9176 72.1089 80.1076 68.7422 83.6679 71.3775C82.7375 71.2161 81.8501 71.1731 81.0003 71.3022C78.3166 71.6518 76.4934 73.8407 76.0363 76.4545H76.0417Z" fill="#57111A"/>
<path d="M101.077 71.2269C99.0817 67.204 103.465 62.8424 107.499 64.6871C106.552 64.7193 105.681 64.8592 104.874 65.1603C102.319 66.0531 100.986 68.5755 101.077 71.2269Z" fill="#57111A"/>
<path d="M88.3684 54.8667C85.2168 51.6129 81.9684 48.6173 78.4834 45.7292C82.7644 47.3373 86.4269 50.7309 88.3684 54.8667Z" fill="#57111A"/>
<path d="M139.45 39.7326C132.98 36.7047 126.236 34.5534 119.217 33.2358C126.403 33.0583 133.717 35.3978 139.45 39.7326Z" fill="#57111A"/>
<path d="M10.4228 57.2384C15.0857 51.6666 21.8084 47.7352 28.9559 46.4175C22.287 49.1765 16.0968 52.7799 10.4228 57.2384Z" fill="#57111A"/>
<path d="M115.792 7.71114C116.399 7.80256 116.55 8.08761 116.571 8.24895C116.609 8.57702 116.356 8.84593 116.082 9.03954" stroke="#CDE6D6" stroke-width="0.537815" stroke-miterlimit="10"/>
</g>
<defs>
<clipPath id="clip0_3_98">
<rect width="192" height="183.395" fill="white" transform="translate(0 4)"/>
</clipPath>
</defs>
</svg>
