<svg width="890" height="291" viewBox="0 0 890 291" fill="none" xmlns="http://www.w3.org/2000/svg">
<path d="M168.389 0H64.6959C58.6756 0 53.1043 3.18409 50.0486 8.3712L3.22842 87.848C0.145387 93.0815 0.0888178 99.5622 3.08003 104.849L51.3051 190.078C54.3221 195.41 59.9746 198.706 66.1009 198.706H168.089C174.27 198.706 179.964 195.352 182.959 189.945L230.131 104.803C233.048 99.5375 232.964 93.122 229.908 87.9355L183.036 8.3712C179.981 3.18409 174.409 0 168.389 0Z" fill="#162941"/>
<path d="M333.503 92.0332H227.524C222.212 92.0332 217.296 94.8427 214.599 99.4196L166.613 180.876C163.893 185.494 163.843 191.212 166.482 195.877L215.85 283.126C218.512 287.831 223.5 290.74 228.905 290.74H333.238C338.692 290.74 343.716 287.779 346.359 283.009L394.656 195.836C397.23 191.19 397.155 185.53 394.459 180.953L346.427 99.4196C343.731 94.8427 338.815 92.0332 333.503 92.0332Z" fill="#162941"/>
<path d="M659.424 92.0332H555.731C549.71 92.0332 544.139 95.2173 541.083 100.404L494.263 179.881C491.18 185.115 491.123 191.595 494.115 196.882L542.34 282.111C545.357 287.443 551.009 290.74 557.136 290.74H659.123C665.304 290.74 670.998 287.385 673.994 281.978L721.166 196.836C724.083 191.571 723.998 185.155 720.943 179.969L674.071 100.404C671.015 95.2173 665.444 92.0332 659.424 92.0332Z" fill="#162941"/>
<path d="M495.454 0H391.76C385.74 0 380.169 3.18409 377.113 8.3712L330.293 87.848C327.21 93.0815 327.153 99.5622 330.144 104.849L378.37 190.078C381.387 195.41 387.039 198.706 393.165 198.706H495.153C501.334 198.706 507.028 195.352 510.024 189.945L557.196 104.803C560.113 99.5375 560.028 93.122 556.973 87.9355L510.101 8.3712C507.045 3.18409 501.474 0 495.454 0Z" fill="#162941"/>
<path d="M822.518 0H718.824C712.804 0 707.233 3.18409 704.177 8.3712L657.357 87.848C654.274 93.0815 654.217 99.5622 657.208 104.849L705.434 190.078C708.451 195.41 714.103 198.706 720.229 198.706H822.217C828.398 198.706 834.092 195.352 837.087 189.945L884.259 104.803C887.177 99.5375 887.092 93.122 884.037 87.9355L837.165 8.3712C834.109 3.18409 828.538 0 822.518 0Z" fill="#162941"/>
<path d="M484.936 23.6992H407.702C401.698 23.6992 396.139 26.8662 393.078 32.0311L358.538 90.3039C355.424 95.5568 355.367 102.076 358.388 107.383L394.074 170.064C397.097 175.374 402.737 178.654 408.847 178.654H484.636C490.801 178.654 496.483 175.316 499.484 169.931L534.377 107.337C537.324 102.051 537.238 95.5976 534.153 90.3917L499.561 32.0311C496.499 26.8662 490.94 23.6992 484.936 23.6992Z" fill="#979797"/>
<path d="M481.297 18.2295H404.062C398.058 18.2295 392.5 21.3965 389.438 26.5614L354.898 84.8341C351.785 90.0871 351.727 96.6063 354.749 101.913L390.434 164.595C393.457 169.905 399.097 173.184 405.207 173.184H480.996C487.161 173.184 492.843 169.846 495.845 164.461L530.738 101.867C533.684 96.5816 533.599 90.1278 530.513 84.922L495.921 26.5614C492.86 21.3965 487.301 18.2295 481.297 18.2295Z" fill="#FBEDD8"/>
<path d="M811.123 25.6289H733.889C727.885 25.6289 722.326 28.7959 719.265 33.9608L684.725 92.2335C681.611 97.4865 681.554 104.006 684.575 109.312L720.261 171.994C723.284 177.304 728.924 180.583 735.034 180.583H810.823C816.988 180.583 822.67 177.246 825.671 171.861L860.564 109.267C863.511 103.981 863.425 97.5273 860.34 92.3214L825.748 33.9608C822.686 28.7959 817.127 25.6289 811.123 25.6289Z" fill="#927C3E"/>
<path d="M807.484 20.1592H730.249C724.245 20.1592 718.687 23.3262 715.625 28.491L681.085 86.7638C677.972 92.0168 677.914 98.536 680.936 103.843L716.621 166.524C719.644 171.834 725.284 175.114 731.394 175.114H807.183C813.348 175.114 819.03 171.776 822.032 166.391L856.925 103.797C859.871 98.5113 859.786 92.0575 856.7 86.8516L822.108 28.4911C819.047 23.3262 813.488 20.1592 807.484 20.1592Z" fill="#FCCB3C"/>
<path d="M159.626 25.6289H82.3913C76.3873 25.6289 70.8286 28.7959 67.7672 33.9608L33.2272 92.2335C30.1137 97.4865 30.0566 104.006 33.0777 109.312L68.763 171.994C71.786 177.304 77.4263 180.583 83.5366 180.583H159.325C165.49 180.583 171.172 177.246 174.174 171.861L209.067 109.267C212.013 103.981 211.928 97.5273 208.842 92.3214L174.25 33.9608C171.189 28.7959 165.63 25.6289 159.626 25.6289Z" fill="#465D8F"/>
<path d="M155.986 20.1592H78.7517C72.7477 20.1592 67.189 23.3262 64.1276 28.491L29.5876 86.7638C26.474 92.0168 26.4169 98.536 29.4381 103.843L65.1233 166.524C68.1464 171.834 73.7866 175.114 79.8969 175.114H155.685C161.851 175.114 167.532 171.776 170.534 166.391L205.427 103.797C208.374 98.5113 208.288 92.0575 205.202 86.8516L170.61 28.4911C167.549 23.3262 161.99 20.1592 155.986 20.1592Z" fill="#3170C3"/>
<path d="M649.834 115.732H572.6C566.596 115.732 561.037 118.899 557.976 124.064L523.436 182.337C520.322 187.59 520.265 194.109 523.286 199.416L558.971 262.098C561.995 267.408 567.635 270.687 573.745 270.687H649.534C655.699 270.687 661.381 267.349 664.382 261.964L699.275 199.37C702.222 194.085 702.136 187.631 699.051 182.425L664.458 124.064C661.397 118.899 655.838 115.732 649.834 115.732Z" fill="#8B4041"/>
<path d="M646.194 110.263H568.96C562.956 110.263 557.397 113.43 554.336 118.595L519.796 176.867C516.682 182.12 516.625 188.64 519.646 193.946L555.331 256.628C558.354 261.938 563.995 265.217 570.105 265.217H645.893C652.059 265.217 657.74 261.879 660.742 256.495L695.635 193.901C698.582 188.615 698.496 182.161 695.41 176.955L660.818 118.595C657.757 113.43 652.198 110.263 646.194 110.263Z" fill="#DD2149"/>
<path d="M322.77 117.555H245.536C239.532 117.555 233.973 120.722 230.912 125.887L196.372 184.159C193.258 189.412 193.201 195.932 196.222 201.238L231.907 263.92C234.931 269.23 240.571 272.509 246.681 272.509H322.47C328.635 272.509 334.317 269.171 337.318 263.787L372.211 201.193C375.158 195.907 375.072 189.453 371.987 184.247L337.395 125.887C334.333 120.722 328.774 117.555 322.77 117.555Z" fill="#3B8F57"/>
<path d="M319.131 112.086H241.896C235.892 112.086 230.333 115.253 227.272 120.418L192.732 178.691C189.619 183.944 189.561 190.463 192.583 195.769L228.268 258.451C231.291 263.761 236.931 267.04 243.041 267.04H318.83C324.995 267.04 330.677 263.703 333.679 258.318L368.572 195.724C371.518 190.438 371.433 183.984 368.347 178.778L333.755 120.418C330.694 115.253 325.135 112.086 319.131 112.086Z" fill="#42C974"/>
<path d="M818.175 55.3264C818.857 56.6064 819.241 57.7584 819.327 58.7824C819.497 59.8064 819.583 61.2997 819.583 63.2624V134.302C819.583 140.19 817.961 143.646 814.719 144.67C813.097 145.182 811.049 145.438 808.575 145.438C806.1 145.438 804.137 145.225 802.687 144.798C801.236 144.372 800.127 143.86 799.359 143.262C798.591 142.665 797.993 141.812 797.567 140.702C797.14 139.252 796.927 137.033 796.927 134.046V91.1664C794.793 93.8117 791.679 98.0357 787.583 103.838C783.487 109.556 780.884 113.14 779.775 114.59C778.665 116.041 777.897 117.065 777.471 117.662C777.044 118.174 775.977 118.942 774.271 119.966C772.649 120.905 770.857 121.374 768.895 121.374C767.017 121.374 765.268 120.948 763.647 120.094C762.111 119.156 761.001 118.26 760.319 117.406L759.295 115.998C757.588 113.865 754.217 109.342 749.183 102.43C744.148 95.4331 741.417 91.6784 740.991 91.1664V134.302C740.991 136.265 740.905 137.758 740.735 138.782C740.649 139.721 740.265 140.788 739.583 141.982C738.303 144.286 734.975 145.438 729.599 145.438C724.393 145.438 721.151 144.286 719.871 141.982C719.188 140.788 718.761 139.678 718.591 138.654C718.505 137.63 718.463 136.094 718.463 134.046V63.0064C718.463 61.0437 718.505 59.5931 718.591 58.6544C718.761 57.6304 719.188 56.4784 719.871 55.1984C721.151 52.9797 724.479 51.8704 729.855 51.8704C732.159 51.8704 734.121 52.1691 735.743 52.7664C737.449 53.2784 738.559 53.8331 739.071 54.4304L739.839 55.1984L768.895 93.3424C783.401 74.1424 793.087 61.4704 797.951 55.3264C799.401 53.0224 802.815 51.8704 808.191 51.8704C813.652 51.8704 816.98 53.0224 818.175 55.3264Z" fill="black"/>
<path d="M460.007 94.5725L485.735 122.861C488.636 126.103 490.087 128.834 490.087 131.053C490.087 133.271 488.423 135.874 485.095 138.861C481.852 141.847 479.079 143.341 476.775 143.341C474.556 143.341 471.954 141.634 468.967 138.221L444.647 110.317L420.327 138.221C417.255 141.634 414.61 143.341 412.391 143.341C410.258 143.341 407.484 141.847 404.071 138.861C400.743 135.789 399.079 133.186 399.079 131.053C399.079 128.919 400.572 126.189 403.559 122.861L429.287 94.5725L403.559 66.2845C400.572 63.1272 399.079 60.4392 399.079 58.2205C399.079 56.0019 400.743 53.3992 404.071 50.4125C407.399 47.3405 410.172 45.8045 412.391 45.8045C414.695 45.8045 417.34 47.5112 420.327 50.9245L444.647 78.8285L468.967 50.9245C472.039 47.5112 474.642 45.8045 476.775 45.8045C478.994 45.8045 481.767 47.2979 485.095 50.2845C488.423 53.2712 490.087 55.9165 490.087 58.2205C490.087 60.5245 488.636 63.2125 485.735 66.2845L460.007 94.5725Z" fill="black"/>
<path d="M135.887 51.6925C136.569 50.4125 137.721 49.5165 139.343 49.0045C140.964 48.4925 143.012 48.2365 145.487 48.2365C147.961 48.2365 149.924 48.4499 151.375 48.8765C152.825 49.3032 153.935 49.8152 154.703 50.4125C155.471 51.0099 156.068 51.8632 156.495 52.9725C156.921 54.4232 157.135 56.6419 157.135 59.6285V130.669C157.135 132.631 157.049 134.125 156.879 135.149C156.793 136.087 156.409 137.197 155.727 138.477C154.532 140.781 151.204 141.933 145.743 141.933C139.769 141.933 136.271 140.354 135.247 137.197C134.735 135.746 134.479 133.527 134.479 130.541V104.557H100.559V130.669C100.559 132.631 100.473 134.125 100.303 135.149C100.217 136.087 99.8332 137.197 99.1506 138.477C97.9559 140.781 94.6279 141.933 89.1666 141.933C83.1932 141.933 79.6946 140.354 78.6706 137.197C78.1586 135.746 77.9026 133.527 77.9026 130.541V59.5005C77.9026 57.5379 77.9452 56.0872 78.0306 55.1485C78.2012 54.1245 78.6279 52.9725 79.3106 51.6925C80.5052 49.3885 83.8332 48.2365 89.2946 48.2365C95.2679 48.2365 98.8092 49.8152 99.9186 52.9725C100.345 54.4232 100.559 56.6419 100.559 59.6285V85.7405H134.479V59.5005C134.479 57.5379 134.521 56.0872 134.607 55.1485C134.777 54.1245 135.204 52.9725 135.887 51.6925Z" fill="black"/>
<path d="M267.59 211.438H307.014C308.976 211.438 310.427 211.523 311.366 211.694C312.39 211.779 313.542 212.163 314.822 212.846C317.126 214.04 318.278 217.368 318.278 222.83C318.278 228.803 316.699 232.302 313.542 233.326C312.091 233.838 309.872 234.094 306.886 234.094H256.198C250.224 234.094 246.726 232.472 245.702 229.23C245.19 227.864 244.934 225.688 244.934 222.702V151.534C244.934 147.182 245.744 144.238 247.366 142.702C248.987 141.08 252.059 140.27 256.582 140.27H307.014C308.976 140.27 310.427 140.355 311.366 140.526C312.39 140.611 313.542 140.995 314.822 141.678C317.126 142.872 318.278 146.2 318.278 151.662C318.278 157.635 316.699 161.134 313.542 162.158C312.091 162.67 309.872 162.926 306.886 162.926H267.59V175.854H292.934C294.896 175.854 296.347 175.939 297.286 176.11C298.31 176.195 299.462 176.579 300.742 177.262C303.046 178.456 304.198 181.784 304.198 187.246C304.198 193.219 302.576 196.718 299.334 197.742C297.883 198.254 295.664 198.51 292.678 198.51H267.59V211.438Z" fill="black"/>
<path d="M621.524 146.926L656.084 218.35C657.535 221.251 658.26 223.427 658.26 224.878C658.26 227.95 655.785 230.723 650.836 233.198C647.935 234.648 645.631 235.374 643.924 235.374C642.303 235.374 640.937 234.99 639.828 234.222C638.804 233.454 638.036 232.643 637.524 231.79C637.097 230.936 636.457 229.656 635.604 227.95L628.948 214.126H593.492L586.836 227.95C585.983 229.656 585.3 230.894 584.788 231.662C584.361 232.43 583.593 233.24 582.484 234.094C581.46 234.862 580.095 235.246 578.388 235.246C576.767 235.246 574.505 234.52 571.604 233.07C566.655 230.68 564.18 227.95 564.18 224.878C564.18 223.427 564.905 221.251 566.356 218.35L600.916 146.798C601.855 144.835 603.263 143.256 605.14 142.062C607.103 140.867 609.151 140.27 611.284 140.27C615.892 140.27 619.305 142.488 621.524 146.926ZM611.156 177.646L602.708 195.182H619.732L611.156 177.646Z" fill="black"/>
</svg>
